<?xml version="1.0" encoding="UTF-8" standalone="no"?>
<!-- Created with Inkscape (http://www.inkscape.org/) -->

<svg
   width="250"
   height="250"
   id="svg4472"
   version="1.1"
   inkscape:version="1.1.2 (0a00cf5339, 2022-02-04)"
   sodipodi:docname="+DZ.svg"
   xmlns:inkscape="http://www.inkscape.org/namespaces/inkscape"
   xmlns:sodipodi="http://sodipodi.sourceforge.net/DTD/sodipodi-0.dtd"
   xmlns="http://www.w3.org/2000/svg"
   xmlns:svg="http://www.w3.org/2000/svg"
   xmlns:rdf="http://www.w3.org/1999/02/22-rdf-syntax-ns#"
   xmlns:cc="http://creativecommons.org/ns#"
   xmlns:dc="http://purl.org/dc/elements/1.1/">
  <defs
     id="defs4474" />
  <sodipodi:namedview
     id="base"
     pagecolor="#ffffff"
     bordercolor="#666666"
     borderopacity="1.0"
     inkscape:pageopacity="0.0"
     inkscape:pageshadow="2"
     inkscape:zoom="2.1310476"
     inkscape:cx="116.60931"
     inkscape:cy="133.97167"
     inkscape:document-units="px"
     inkscape:current-layer="layer1"
     showgrid="false"
     inkscape:window-width="2560"
     inkscape:window-height="1379"
     inkscape:window-x="1920"
     inkscape:window-y="0"
     inkscape:window-maximized="1"
     inkscape:pagecheckerboard="0"
     units="px" />
  <metadata
     id="metadata4477">
    <rdf:RDF>
      <cc:Work
         rdf:about="">
        <dc:format>image/svg+xml</dc:format>
        <dc:type
           rdf:resource="http://purl.org/dc/dcmitype/StillImage" />
      </cc:Work>
    </rdf:RDF>
  </metadata>
  <g
     inkscape:label="Layer 1"
     inkscape:groupmode="layer"
     id="layer1">
    <rect
       style="opacity:0.98;fill:none;stroke:none;stroke-opacity:1"
       id="rect2984"
       width="250"
       height="250.71428"
       x="246"
       y="351.64789" />
    <g
       id="g1469"
       transform="matrix(1.3291485,0,0,1.3291485,-6.8836462,-4.6821204)">
      <g
         aria-label=", "
         transform="matrix(0.99958707,0,0,1.0004131,-270.51133,-378.65097)"
         id="text3899"
         style="line-height:0%;font-family:FreeSerif;-inkscape-font-specification:FreeSerif;letter-spacing:0px;word-spacing:0px;stroke:#000000">
        <path
           d="m 319.09054,471.45343 q 0,0 -2.04847,0.51212 -2.30453,0.51212 -4.86512,0.51212 -6.9136,0 -11.01054,-3.32877 -4.09694,-3.58482 -4.09694,-9.73024 0,-6.40147 4.09694,-10.49842 4.353,-4.09694 11.01054,-4.09694 8.706,0 14.59536,6.65753 5.88936,6.40148 5.88936,16.13172 0,11.52265 -7.93783,22.27713 -7.93783,10.75448 -20.74078,17.15595 l -2.30453,-4.86512 q 20.99684,-14.3393 20.99684,-27.14225 0,-3.58483 -3.58483,-3.58483 z"
           style="font-size:256.059px;line-height:1.25"
           id="path278" />
      </g>
      <g
         aria-label=", "
         transform="matrix(0.99958707,0,0,1.0004131,-270.51133,-378.65097)"
         id="text3971"
         style="line-height:0%;font-family:FreeSerif;-inkscape-font-specification:FreeSerif;letter-spacing:0px;word-spacing:0px;stroke:#000000">
        <path
           d="m 429.13586,471.45343 q 0,0 -2.04847,0.51212 -2.30453,0.51212 -4.86512,0.51212 -6.9136,0 -11.01054,-3.32877 -4.09694,-3.58482 -4.09694,-9.73024 0,-6.40147 4.09694,-10.49842 4.353,-4.09694 11.01054,-4.09694 8.706,0 14.59536,6.65753 5.88936,6.40148 5.88936,16.13172 0,11.52265 -7.93783,22.27713 -7.93783,10.75448 -20.74078,17.15595 l -2.30453,-4.86512 q 20.99683,-14.3393 20.99683,-27.14225 0,-3.58483 -3.58482,-3.58483 z"
           style="font-size:256.059px;line-height:1.25"
           id="path257" />
      </g>
      <g
         aria-label=", "
         transform="matrix(0.99958707,0,0,1.0004131,-270.51133,-378.65097)"
         id="text3812"
         style="line-height:0%;font-family:FreeSerif;-inkscape-font-specification:FreeSerif;letter-spacing:0px;word-spacing:0px;stroke:#000000">
        <path
           d="m 373.11279,411.47815 q 0,0 -2.04847,0.51212 -2.30454,0.51212 -4.86513,0.51212 -6.91359,0 -11.01053,-3.32877 -4.09695,-3.58482 -4.09695,-9.73024 0,-6.40148 4.09695,-10.49842 4.353,-4.09694 11.01053,-4.09694 8.70601,0 14.59537,6.65753 5.88935,6.40148 5.88935,16.13172 0,11.52265 -7.93782,22.27713 -7.93783,10.75448 -20.74078,17.15595 l -2.30453,-4.86512 q 20.99683,-14.3393 20.99683,-27.14225 0,-3.58483 -3.58482,-3.58483 z"
           style="font-size:256.059px;line-height:1.25"
           id="path236" />
      </g>
      <g
         aria-label=", "
         transform="matrix(0.99958707,0,0,1.0004131,-270.51133,-378.65097)"
         id="text3839"
         style="line-height:0%;font-family:FreeSerif;-inkscape-font-specification:FreeSerif;letter-spacing:0px;word-spacing:0px;stroke:#000000">
        <path
           d="m 373.11279,531.42844 q 0,0 -2.04847,0.51212 -2.30454,0.51211 -4.86513,0.51211 -6.91359,0 -11.01053,-3.32876 -4.09695,-3.58483 -4.09695,-9.73024 0,-6.40148 4.09695,-10.49842 4.353,-4.09695 11.01053,-4.09695 8.70601,0 14.59537,6.65754 5.88935,6.40147 5.88935,16.13171 0,11.52266 -7.93782,22.27714 -7.93783,10.75447 -20.74078,17.15595 l -2.30453,-4.86512 q 20.99683,-14.33931 20.99683,-27.14226 0,-3.58482 -3.58482,-3.58482 z"
           style="font-size:256.059px;line-height:1.25"
           id="path201" />
      </g>
    </g>
  </g>
</svg>
