<?xml version="1.0" encoding="UTF-8" standalone="no"?>
<!-- Created with Inkscape (http://www.inkscape.org/) -->

<svg
   width="250"
   height="250"
   id="svg4472"
   version="1.1"
   inkscape:version="1.1.2 (0a00cf5339, 2022-02-04)"
   sodipodi:docname="+SS.svg"
   inkscape:export-filename="/home/nhasan/android/workspace/Airports/artwork/VCSS.png"
   inkscape:export-xdpi="288"
   inkscape:export-ydpi="288"
   xmlns:inkscape="http://www.inkscape.org/namespaces/inkscape"
   xmlns:sodipodi="http://sodipodi.sourceforge.net/DTD/sodipodi-0.dtd"
   xmlns="http://www.w3.org/2000/svg"
   xmlns:svg="http://www.w3.org/2000/svg"
   xmlns:rdf="http://www.w3.org/1999/02/22-rdf-syntax-ns#"
   xmlns:cc="http://creativecommons.org/ns#"
   xmlns:dc="http://purl.org/dc/elements/1.1/">
  <defs
     id="defs4474">
    <marker
       inkscape:stockid="TriangleOutS"
       orient="auto"
       refY="0"
       refX="0"
       id="TriangleOutS"
       style="overflow:visible">
      <path
         id="path3937"
         d="M 5.77,0 -2.88,5 V -5 Z"
         style="fill-rule:evenodd;stroke:#000000;stroke-width:1pt;marker-start:none"
         transform="scale(0.2)" />
    </marker>
    <marker
       inkscape:stockid="Arrow2Send"
       orient="auto"
       refY="0"
       refX="0"
       id="Arrow2Send"
       style="overflow:visible">
      <path
         id="path3821"
         style="font-size:12px;fill-rule:evenodd;stroke-width:0.625;stroke-linejoin:round"
         d="M 8.7185878,4.0337352 -2.2072895,0.01601326 8.7185884,-4.0017078 c -1.7454984,2.3720609 -1.7354408,5.6174519 -6e-7,8.035443 z"
         transform="matrix(-0.3,0,0,-0.3,0.69,0)" />
    </marker>
    <marker
       inkscape:stockid="Arrow1Send"
       orient="auto"
       refY="0"
       refX="0"
       id="Arrow1Send"
       style="overflow:visible">
      <path
         id="path3803"
         d="M 0,0 5,-5 -12.5,0 5,5 Z"
         style="fill-rule:evenodd;stroke:#000000;stroke-width:1pt;marker-start:none"
         transform="matrix(-0.2,0,0,-0.2,-1.2,0)" />
    </marker>
    <marker
       inkscape:stockid="Arrow1Lend"
       orient="auto"
       refY="0"
       refX="0"
       id="Arrow1Lend"
       style="overflow:visible">
      <path
         id="path3791"
         d="M 0,0 5,-5 -12.5,0 5,5 Z"
         style="fill-rule:evenodd;stroke:#000000;stroke-width:1pt;marker-start:none"
         transform="matrix(-0.8,0,0,-0.8,-10,0)" />
    </marker>
  </defs>
  <sodipodi:namedview
     id="base"
     pagecolor="#ffffff"
     bordercolor="#666666"
     borderopacity="1.0"
     inkscape:pageopacity="0.0"
     inkscape:pageshadow="2"
     inkscape:zoom="2"
     inkscape:cx="93.75"
     inkscape:cy="190.75"
     inkscape:document-units="px"
     inkscape:current-layer="layer1"
     showgrid="false"
     inkscape:window-width="2560"
     inkscape:window-height="1379"
     inkscape:window-x="1920"
     inkscape:window-y="0"
     inkscape:window-maximized="1"
     inkscape:pagecheckerboard="0" />
  <metadata
     id="metadata4477">
    <rdf:RDF>
      <cc:Work
         rdf:about="">
        <dc:format>image/svg+xml</dc:format>
        <dc:type
           rdf:resource="http://purl.org/dc/dcmitype/StillImage" />
      </cc:Work>
    </rdf:RDF>
  </metadata>
  <g
     inkscape:label="Layer 1"
     inkscape:groupmode="layer"
     id="layer1"
     transform="translate(-290.77351,-369.4353)">
    <rect
       style="fill:none;stroke:none;stroke-width:1;stroke-linecap:butt;stroke-miterlimit:0;stroke-dasharray:none;stroke-opacity:1"
       id="rect4482"
       width="250"
       height="250"
       x="250.51784"
       y="351.31631"
       inkscape:export-xdpi="288"
       inkscape:export-ydpi="288"
       inkscape:export-filename="/home/nhasan/android/workspace/Airports/artwork/VCSS.png" />
    <g
       id="g12114">
      <g
         style="font-style:normal;font-weight:normal;font-size:264.265px;line-height:125%;font-family:Sans;letter-spacing:0px;word-spacing:0px;fill:#000000;fill-opacity:1;stroke:none"
         id="text5042"
         transform="matrix(1.0549256,0,0,1.2476052,22.412322,-99.273649)"
         inkscape:export-filename="/home/nhasan/android/workspace/Airports/artwork/VCSS.png"
         inkscape:export-xdpi="288"
         inkscape:export-ydpi="288">
        <path
           d="m 428.95641,385.74761 v 25.41998 c -9.89284,-4.73113 -19.2264,-8.2581 -28.00069,-10.5809 -8.77451,-2.32247 -17.24783,-3.48379 -25.41998,-3.48396 -14.19397,1.7e-4 -25.16197,2.75293 -32.90404,8.25827 -7.65615,5.50567 -11.48419,13.33381 -11.48415,23.48445 -4e-5,8.51647 2.53765,14.96824 7.61309,19.35531 5.16136,4.30131 13.88202,9.83258 28.16201,12.49919 l 16.74232,3.22589 c 19.44123,3.69912 30.76415,9.41798 39.96881,18.79446 9.2904,9.29063 16.93567,20.53566 16.93582,36.19189 -1.5e-4,18.66716 -6.27987,32.81803 -18.83917,42.45266 -12.47355,9.63465 -30.79656,14.45196 -54.9691,14.45197 -9.11857,-10e-6 -18.83923,-1.03229 -29.16201,-3.09685 -10.23685,-2.06457 -20.86076,-5.1184 -31.87175,-9.16152 v -26.83937 c 10.58087,5.93566 20.94671,10.40888 31.09754,13.41968 10.15073,3.01085 20.12946,4.51626 29.93622,4.51624 14.882,2e-5 26.36614,-2.92478 34.45246,-8.77441 8.0861,-5.84957 12.12921,-14.19385 12.12934,-25.03287 -1.3e-4,-9.46254 -2.92493,-16.86056 -8.77441,-22.1941 -5.7637,-5.33338 -14.2693,-11.3808 -27.51684,-14.04761 l -15.37136,-3.50631 c -19.44139,-3.87098 -32.50624,-10.75457 -41.19459,-19.01293 -8.6884,-8.25816 -15.53259,-16.46659 -15.53258,-31.17676 -10e-6,-17.03252 5.97862,-30.45219 17.93593,-40.25905 12.04326,-9.80651 28.60279,-14.70985 49.67865,-14.71004 9.03238,1.9e-4 18.2369,0.81742 27.61358,2.45167 9.37645,1.63464 18.96808,4.08631 28.7749,7.35502"
           id="path6262"
           inkscape:connector-curvature="0"
           sodipodi:nodetypes="cccccsccccccscccssscccccscccc" />
      </g>
      <path
         style="fill:none;stroke:#000000;stroke-width:10.0525;stroke-linecap:butt;stroke-linejoin:miter;stroke-miterlimit:4;stroke-dasharray:none;stroke-opacity:1"
         d="m 291.29,457.78579 198.94949,-1.38189 0.11709,-19.93869 43.81734,40.43476 -43.48635,40.43474 -0.11707,-19.93869 -198.94948,-1.38188"
         id="path3773"
         inkscape:connector-curvature="0"
         sodipodi:nodetypes="ccccccc" />
    </g>
  </g>
</svg>
