<?xml version="1.0" encoding="UTF-8" standalone="no"?>
<!-- Created with Inkscape (http://www.inkscape.org/) -->

<svg
   xmlns:dc="http://purl.org/dc/elements/1.1/"
   xmlns:cc="http://creativecommons.org/ns#"
   xmlns:rdf="http://www.w3.org/1999/02/22-rdf-syntax-ns#"
   xmlns:svg="http://www.w3.org/2000/svg"
   xmlns="http://www.w3.org/2000/svg"
   xmlns:sodipodi="http://sodipodi.sourceforge.net/DTD/sodipodi-0.dtd"
   xmlns:inkscape="http://www.inkscape.org/namespaces/inkscape"
   width="744.09448819"
   height="1052.3622047"
   id="svg4472"
   version="1.1"
   inkscape:version="0.48.2 r9819"
   sodipodi:docname="+SS.svg"
   inkscape:export-filename="/home/nhasan/android/workspace/Airports/artwork/HZ.png"
   inkscape:export-xdpi="287.42999"
   inkscape:export-ydpi="287.42999">
  <defs
     id="defs4474">
    <marker
       inkscape:stockid="TriangleOutS"
       orient="auto"
       refY="0.0"
       refX="0.0"
       id="TriangleOutS"
       style="overflow:visible">
      <path
         id="path4511"
         d="M 5.77,0.0 L -2.88,5.0 L -2.88,-5.0 L 5.77,0.0 z "
         style="fill-rule:evenodd;stroke:#000000;stroke-width:1.0pt;marker-start:none"
         transform="scale(0.2)" />
    </marker>
  </defs>
  <sodipodi:namedview
     id="base"
     pagecolor="#ffffff"
     bordercolor="#666666"
     borderopacity="1.0"
     inkscape:pageopacity="0.0"
     inkscape:pageshadow="2"
     inkscape:zoom="2.8"
     inkscape:cx="334.21796"
     inkscape:cy="578.7008"
     inkscape:document-units="px"
     inkscape:current-layer="layer1"
     showgrid="false"
     inkscape:window-width="1600"
     inkscape:window-height="846"
     inkscape:window-x="0"
     inkscape:window-y="-3"
     inkscape:window-maximized="1" />
  <metadata
     id="metadata4477">
    <rdf:RDF>
      <cc:Work
         rdf:about="">
        <dc:format>image/svg+xml</dc:format>
        <dc:type
           rdf:resource="http://purl.org/dc/dcmitype/StillImage" />
        <dc:title></dc:title>
      </cc:Work>
    </rdf:RDF>
  </metadata>
  <g
     inkscape:label="Layer 1"
     inkscape:groupmode="layer"
     id="layer1">
    <rect
       style="opacity:0.98000003999999996;fill:none;fill-opacity:1;stroke:none;stroke-width:1;stroke-miterlimit:0;stroke-opacity:1;stroke-dasharray:none"
       id="rect2984"
       width="250"
       height="250.71428"
       x="250"
       y="351.64789" />
    <g
       style="font-size:264.2645874px;font-style:normal;font-weight:normal;line-height:125%;letter-spacing:0px;word-spacing:0px;fill:#000000;fill-opacity:1;stroke:none;font-family:Sans"
       id="text5042"
       transform="matrix(0.91815801,0,0,1.0858573,24.19033,-41.293296)"
       inkscape:export-filename="/home/nhasan/android/workspace/Airports/artwork/VCSS.png"
       inkscape:export-xdpi="288"
       inkscape:export-ydpi="288">
      <path
         d="m 428.95641,385.74761 0,25.41998 c -9.89284,-4.73113 -19.2264,-8.2581 -28.00069,-10.5809 -8.77451,-2.32247 -17.24783,-3.48379 -25.41998,-3.48396 -14.19397,1.7e-4 -25.16197,2.75293 -32.90404,8.25827 -7.65615,5.50567 -11.48419,13.33381 -11.48415,23.48445 -4e-5,8.51647 2.53765,14.96824 7.61309,19.35531 5.16136,4.30131 13.88202,9.83258 28.16201,12.49919 l 16.74232,3.22589 c 19.44123,3.69912 30.76415,9.41798 39.96881,18.79446 9.2904,9.29063 16.93567,20.53566 16.93582,36.19189 -1.5e-4,18.66716 -6.27987,32.81803 -18.83917,42.45266 -12.47355,9.63465 -30.79656,14.45196 -54.9691,14.45197 -9.11857,-10e-6 -18.83923,-1.03229 -29.16201,-3.09685 -10.23685,-2.06457 -20.86076,-5.1184 -31.87175,-9.16152 l 0,-26.83937 c 10.58087,5.93566 20.94671,10.40888 31.09754,13.41968 10.15073,3.01085 20.12946,4.51626 29.93622,4.51624 14.882,2e-5 26.36614,-2.92478 34.45246,-8.77441 8.0861,-5.84957 12.12921,-14.19385 12.12934,-25.03287 -1.3e-4,-9.46254 -2.92493,-16.86056 -8.77441,-22.1941 -5.7637,-5.33338 -14.2693,-11.3808 -27.51684,-14.04761 l -15.37136,-3.50631 c -19.44139,-3.87098 -32.50624,-10.75457 -41.19459,-19.01293 -8.6884,-8.25816 -15.53259,-16.46659 -15.53258,-31.17676 -10e-6,-17.03252 5.97862,-30.45219 17.93593,-40.25905 12.04326,-9.80651 28.60279,-14.70985 49.67865,-14.71004 9.03238,1.9e-4 18.2369,0.81742 27.61358,2.45167 9.37645,1.63464 18.96808,4.08631 28.7749,7.35502"
         id="path6262"
         inkscape:connector-curvature="0"
         sodipodi:nodetypes="cccccsccccccscccssscccccscccc" />
    </g>
    <path
       style="fill:none;stroke:#000000;stroke-width:10.82376194;stroke-linecap:butt;stroke-linejoin:miter;stroke-miterlimit:4;stroke-opacity:1;stroke-dasharray:none"
       d="m 270.53684,444.47966 177.82278,-1.25 0.10465,-18.03571 39.16432,36.5756 -38.86847,36.5756 -0.10464,-18.03571 -177.82277,-1.25"
       id="path3773"
       inkscape:connector-curvature="0"
       sodipodi:nodetypes="ccccccc" />
  </g>
</svg>
