<?xml version="1.0" encoding="UTF-8" standalone="no"?>
<!-- Created with Inkscape (http://www.inkscape.org/) -->

<svg
   width="250"
   height="250"
   id="svg4472"
   version="1.1"
   inkscape:version="1.1.2 (0a00cf5339, 2022-02-04)"
   sodipodi:docname="-DZ.svg"
   inkscape:export-filename="/home/nhasan/android/workspace/Airports/artwork/HZ.png"
   inkscape:export-xdpi="287.42999"
   inkscape:export-ydpi="287.42999"
   xmlns:inkscape="http://www.inkscape.org/namespaces/inkscape"
   xmlns:sodipodi="http://sodipodi.sourceforge.net/DTD/sodipodi-0.dtd"
   xmlns="http://www.w3.org/2000/svg"
   xmlns:svg="http://www.w3.org/2000/svg"
   xmlns:rdf="http://www.w3.org/1999/02/22-rdf-syntax-ns#"
   xmlns:cc="http://creativecommons.org/ns#"
   xmlns:dc="http://purl.org/dc/elements/1.1/">
  <defs
     id="defs4474" />
  <sodipodi:namedview
     id="base"
     pagecolor="#ffffff"
     bordercolor="#666666"
     borderopacity="1.0"
     inkscape:pageopacity="0.0"
     inkscape:pageshadow="2"
     inkscape:zoom="1.979899"
     inkscape:cx="26.011428"
     inkscape:cy="127.02668"
     inkscape:document-units="px"
     inkscape:current-layer="layer1"
     showgrid="false"
     inkscape:window-width="2560"
     inkscape:window-height="1379"
     inkscape:window-x="1920"
     inkscape:window-y="0"
     inkscape:window-maximized="1"
     inkscape:pagecheckerboard="0" />
  <metadata
     id="metadata4477">
    <rdf:RDF>
      <cc:Work
         rdf:about="">
        <dc:format>image/svg+xml</dc:format>
        <dc:type
           rdf:resource="http://purl.org/dc/dcmitype/StillImage" />
      </cc:Work>
    </rdf:RDF>
  </metadata>
  <g
     inkscape:label="Layer 1"
     inkscape:groupmode="layer"
     id="layer1"
     transform="translate(-296.44698,-444.50689)">
    <rect
       style="opacity:0.98;fill:none;stroke:none;stroke-opacity:1"
       id="rect2984"
       width="250"
       height="250.71428"
       x="246"
       y="351.64789" />
    <g
       id="g41251"
       transform="matrix(1.6680826,0,0,1.6680826,-195.31075,-225.36922)">
      <g
         aria-label=", "
         transform="scale(0.99958707,1.0004131)"
         id="text3899"
         style="font-size:256.059px;line-height:125%;font-family:FreeSerif;-inkscape-font-specification:FreeSerif;letter-spacing:0px;word-spacing:0px;stroke:#000000;stroke-width:1">
        <path
           d="m 319.09048,471.45343 q 0,0 -2.04847,0.51212 -2.30453,0.51212 -4.86512,0.51212 -6.91358,0 -11.01051,-3.32877 -4.09694,-3.58481 -4.09694,-9.73022 0,-6.40146 4.09694,-10.4984 4.35299,-4.09694 11.01051,-4.09694 8.70599,0 14.59534,6.65753 5.88935,6.40146 5.88935,16.13168 0,11.52264 -7.93782,22.2771 -7.93781,10.75445 -20.74074,17.15592 l -2.30453,-4.86511 q 20.9968,-14.33928 20.9968,-27.14221 0,-3.58482 -3.58481,-3.58482 z"
           id="path41277" />
      </g>
      <g
         aria-label=", "
         transform="scale(0.99958707,1.0004131)"
         id="text3971"
         style="font-size:256.059px;line-height:125%;font-family:FreeSerif;-inkscape-font-specification:FreeSerif;letter-spacing:0px;word-spacing:0px;stroke:#000000;stroke-width:1">
        <path
           d="m 429.13579,471.45343 q 0,0 -2.04846,0.51212 -2.30453,0.51212 -4.86512,0.51212 -6.91358,0 -11.01051,-3.32877 -4.09694,-3.58481 -4.09694,-9.73022 0,-6.40146 4.09694,-10.4984 4.35299,-4.09694 11.01051,-4.09694 8.70599,0 14.59534,6.65753 5.88935,6.40146 5.88935,16.13168 0,11.52264 -7.93782,22.2771 -7.93781,10.75445 -20.74074,17.15592 l -2.30453,-4.86511 q 20.9968,-14.33928 20.9968,-27.14221 0,-3.58482 -3.58482,-3.58482 z"
           id="path41280" />
      </g>
    </g>
  </g>
</svg>
