<?xml version="1.0" encoding="UTF-8" standalone="no"?>
<svg
   xmlns:dc="http://purl.org/dc/elements/1.1/"
   xmlns:cc="http://creativecommons.org/ns#"
   xmlns:rdf="http://www.w3.org/1999/02/22-rdf-syntax-ns#"
   xmlns:svg="http://www.w3.org/2000/svg"
   xmlns="http://www.w3.org/2000/svg"
   xmlns:sodipodi="http://sodipodi.sourceforge.net/DTD/sodipodi-0.dtd"
   xmlns:inkscape="http://www.inkscape.org/namespaces/inkscape"
   width="990"
   height="765"
   id="svg2"
   version="1.1"
   inkscape:version="0.48.2 r9819"
   sodipodi:docname="cessna-172-sketch.svg"
   inkscape:export-filename="/home/nhasan/android/workspace/Airports/artwork/cessna-172-sketch.png"
   inkscape:export-xdpi="58.823528"
   inkscape:export-ydpi="58.823528">
  <defs
     id="defs73" />
  <sodipodi:namedview
     pagecolor="#ffffff"
     bordercolor="#666666"
     borderopacity="1"
     objecttolerance="10"
     gridtolerance="10"
     guidetolerance="10"
     inkscape:pageopacity="0"
     inkscape:pageshadow="2"
     inkscape:window-width="1600"
     inkscape:window-height="846"
     id="namedview71"
     showgrid="false"
     inkscape:zoom="0.50734912"
     inkscape:cx="540.45559"
     inkscape:cy="447.82039"
     inkscape:window-x="0"
     inkscape:window-y="0"
     inkscape:window-maximized="1"
     inkscape:current-layer="svg2" />
  <title
     id="title4">Cessna 172 Sketch</title>
  <metadata
     id="metadata12289">image/svg+xml<rdf:RDF>
  <cc:Work
     rdf:about="">
    <dc:format>image/svg+xml</dc:format>
    <dc:type
       rdf:resource="http://purl.org/dc/dcmitype/StillImage" />
    <dc:title>Cessna 172 Sketch</dc:title>
  </cc:Work>
</rdf:RDF>
</metadata>
  <g
     id="g7"
     transform="matrix(0.58158282,0,0,0.58158282,33.552161,81.997039)">
    <title
       id="title9">Layer 1</title>
    <g
       display="inline"
       id="layer1"
       style="display:inline" />
    <g
       display="inline"
       id="layer4"
       style="display:inline">
      <path
         stroke-miterlimit="4"
         id="path14357"
         d="m 908.79138,910.00482 c 21.04785,17.97498 39.38654,3.34534 48.85687,-20.45502 -11.52563,7.81763 -34.44793,19.54096 -48.85687,20.45502 z"
         inkscape:connector-curvature="0"
         style="fill:#000000;fill-rule:evenodd;stroke:#000000;stroke-width:5.15833664;stroke-miterlimit:4" />
      <path
         stroke-miterlimit="4"
         id="path12585"
         d="m 555.50738,979.00378 c 22.54987,16.05042 39.52814,-0.1383 46.86445,-24.68048 -10.792,8.8028 -32.59211,22.50031 -46.86444,24.68048 z"
         inkscape:connector-curvature="0"
         style="fill:#000000;fill-rule:evenodd;stroke:#000000;stroke-width:5.15833664;stroke-miterlimit:4" />
      <path
         stroke-miterlimit="4"
         id="path12336"
         d="m 794,475.42859 95.71429,4.2857 L 1064,411.14285 c 0,0 110.0345,-69.34131 135.7144,-90 13.7669,-19.26675 93.5714,-211.42857 93.5714,-211.42857 31.9048,-27.380952 58.8094,-29.761903 89.2856,-37.142854 L 1341.1429,318.2857 c 11.1905,5.4762 5.9523,15.2381 -10.7143,25.7143 l 49.2858,-14.28571 c 0,0 148.3245,66.28385 147.1427,80 -8.5466,18.02527 -47.995,43.92682 -81.4285,50.71427 -41.7835,-3.90662 -160.7142,-46.07141 -214.2857,-60.71427"
         inkscape:connector-curvature="0"
         style="fill:none;stroke:#000000;stroke-width:5.15833664;stroke-miterlimit:4" />
      <path
         stroke-miterlimit="4"
         id="path12338"
         d="M 1260.4285,409.71429 1061.8572,596.14288"
         inkscape:connector-curvature="0"
         style="fill:none;stroke:#000000;stroke-width:5.15833664;stroke-miterlimit:4" />
      <path
         stroke-miterlimit="4"
         id="path12340"
         d="m 920.96954,535.76031 660.27486,303.95398 c 0,0 -95.6548,76.55109 -148.673,78.57141 -8.5652,0.32636 -405.7143,-131.42858 -405.7143,-131.42858 0,0 -283.61345,-128.86725 -307.8571,-139.28571"
         inkscape:connector-curvature="0"
         style="fill:none;stroke:#000000;stroke-width:5.15833664;stroke-miterlimit:4" />
      <path
         stroke-miterlimit="4"
         id="path12342"
         d="m 961.85718,758.28571 -197.85718,70 -32.85712,18.57141"
         inkscape:connector-curvature="0"
         style="fill:none;stroke:#000000;stroke-width:5.15833664;stroke-miterlimit:4" />
      <path
         stroke-miterlimit="4"
         id="path12344"
         d="m 731.95868,847.52069 c -55.7721,24.63233 -115.02887,48.08118 -179.38727,61.60187 -19.58154,0.56286 -37.14282,3.65106 -55.71426,-0.83685 -22.55429,-5.98829 -39.30017,-14.75446 -58.82398,-28.31885"
         inkscape:connector-curvature="0"
         style="fill:none;stroke:#000000;stroke-width:5.15833664;stroke-miterlimit:4" />
      <path
         stroke-miterlimit="4"
         id="path12346"
         d="m 411.57614,844.46301 c -10.98212,-16.52221 -15.39825,-45.16632 -1.12655,-64.71899 34.7619,-38.89911 69.52383,-68.70679 116.40753,-100.02972 10.77911,-38.8603 18.52771,-66.60889 41.42859,-101.42859 L 305.01016,460.96954 28.560551,302.84628 c 0,0 -24.802351,-12.1748 -15.152281,-36.30603 15.49486,-38.74691 115.29588,-60.51994 115.29588,-60.51994 225.69035,82.73171 441.27919,168.49382 671.01014,269.40828"
         inkscape:connector-curvature="0"
         style="fill:none;stroke:#000000;stroke-width:5.15833664;stroke-miterlimit:4" />
      <path
         stroke-miterlimit="4"
         id="path12348"
         d="m 1138.8057,360.65265 -73.9688,-49.75491 c -9.2211,-6.24823 -19.1055,-9.04761 -20.2452,-21.35675 31.9048,-31.40055 55.7282,-31.48636 89.6534,-40.66355 l 84.979,26.96955"
         inkscape:connector-curvature="0"
         style="fill:none;stroke:#000000;stroke-width:5.15833664;stroke-miterlimit:4" />
      <path
         stroke-miterlimit="4"
         id="path12350"
         d="m 349.43945,481.94995 c 2.85715,5.71429 163.98371,203.4068 163.98371,203.4068"
         inkscape:connector-curvature="0"
         style="fill:none;stroke:#000000;stroke-width:5.15833664;stroke-miterlimit:4" />
      <path
         stroke-miterlimit="4"
         id="path12352"
         d="M 398.77591,504.73529 527.89703,670.33576"
         inkscape:connector-curvature="0"
         style="fill:none;stroke:#000000;stroke-width:5.15833664;stroke-miterlimit:4" />
      <path
         stroke-miterlimit="4"
         id="path12354"
         d="M 942.57141,750.42859 764,815.42859"
         inkscape:connector-curvature="0"
         style="fill:none;stroke:#000000;stroke-width:5.15833664;stroke-miterlimit:4" />
      <path
         stroke-miterlimit="4"
         id="path1893"
         d="m 1231.1429,399 c 1.4286,-18.57144 99.2857,-55 99.2857,-55"
         inkscape:connector-curvature="0"
         style="fill:none;stroke:#000000;stroke-width:5.15833664;stroke-miterlimit:4" />
      <path
         stroke-miterlimit="4"
         id="path2781"
         d="m 1304.7144,354 197.857,77.85715"
         inkscape:connector-curvature="0"
         style="fill:none;stroke:#000000;stroke-width:5.15833664;stroke-miterlimit:4" />
      <path
         stroke-miterlimit="4"
         id="path2783"
         d="m 1346.8571,101.85715 c -1.4285,5 -63.5715,240.71429 -63.5715,240.71429"
         inkscape:connector-curvature="0"
         style="fill:none;stroke:#000000;stroke-width:5.15833664;stroke-miterlimit:4" />
      <path
         stroke-miterlimit="4"
         id="path2785"
         d="m 1290.4285,117.57143 c 20.0001,9.28572 90.7144,-37.142857 90.7144,-37.142857"
         inkscape:connector-curvature="0"
         style="fill:none;stroke:#000000;stroke-width:5.15833664;stroke-miterlimit:4" />
      <path
         stroke-miterlimit="4"
         id="path2787"
         d="m 1064,411.85715 c -3.5714,0 -87.85712,57.85714 -87.85712,57.85714 -7.8778,4.67194 -6.95739,12.26831 5,7.85712 L 1339,319.71429"
         inkscape:connector-curvature="0"
         style="fill:none;stroke:#000000;stroke-width:5.15833664;stroke-miterlimit:4" />
      <path
         stroke-miterlimit="4"
         id="path3674"
         d="m 1083.2856,262.57141 c 4.2858,2.85715 119.2858,54.28574 119.2858,54.28574"
         inkscape:connector-curvature="0"
         style="fill:none;stroke:#000000;stroke-width:5.15833664;stroke-miterlimit:4" />
      <path
         stroke-miterlimit="4"
         id="path4561"
         d="m 718.69781,647.026 c -7.76434,-8.33508 2.42493,-28.69531 10.69324,-37.49823 29.12366,11.17731 292.94425,134.35028 292.94425,134.35028 l 411.1321,145.46198"
         inkscape:connector-curvature="0"
         style="fill:none;stroke:#000000;stroke-width:3.43889117;stroke-miterlimit:4" />
      <path
         stroke-miterlimit="4"
         id="path4563"
         d="m 1419.3252,906.51263 c -5.0507,-26.26397 122.2285,-76.7716 122.2285,-76.7716"
         inkscape:connector-curvature="0"
         style="fill:none;stroke:#000000;stroke-width:3.43889117;stroke-miterlimit:4" />
      <path
         stroke-miterlimit="4"
         id="path4565"
         d="M 1518.3202,837.82227 1162.7465,671.1471"
         inkscape:connector-curvature="0"
         style="fill:none;stroke:#000000;stroke-width:3.43889117;stroke-miterlimit:4" />
      <path
         stroke-miterlimit="4"
         id="path4567"
         d="m 1185.98,657.00494 c 0,0 -38.3858,24.24366 -41.4162,20.20307 -3.0305,-4.04059 -275.77169,-125.25891 -275.77169,-125.25891 0,0 30.38507,-6.47937 52.52796,-16.16248 8.28583,-8.84698 -2.7854,-12.66278 -17.17261,-22.22333 -13.79889,-9.16961 -105.05591,-38.3858 -105.05591,-38.3858"
         inkscape:connector-curvature="0"
         style="fill:none;stroke:#000000;stroke-width:3.43889117;stroke-miterlimit:4" />
      <path
         stroke-miterlimit="4"
         id="path4569"
         d="M 19.253811,285.2688 C 15.2132,262.03531 135.42136,218.59875 135.42136,218.59875"
         inkscape:connector-curvature="0"
         style="fill:none;stroke:#000000;stroke-width:3.43889117;stroke-miterlimit:4" />
      <path
         stroke-miterlimit="4"
         id="path4571"
         d="M 28.345188,267.08606 334.42142,436.79169 c 0,0 206.07113,82.32745 266.68026,114.14721 -11.53369,5.39124 -18.15301,9.04932 -32.81512,26.70343"
         inkscape:connector-curvature="0"
         style="fill:none;stroke:#000000;stroke-width:3.43889117;stroke-miterlimit:4" />
      <path
         stroke-miterlimit="4"
         id="path4573"
         d="m 715.2489,492.3501 c -39.81433,10.78485 -82.48584,31.5697 -119.44305,54.49743"
         inkscape:connector-curvature="0"
         style="fill:none;stroke:#000000;stroke-width:5.15833664;stroke-miterlimit:4" />
      <path
         stroke-miterlimit="4"
         id="path4575"
         d="m 533.42145,362.04041 c -5.05072,1.01013 -59.599,14.14211 -59.599,14.14211 0,0 253.54828,116.16758 257.58893,113.13712 4.04059,-3.03046 67.42767,-14.14215 67.42767,-14.14215"
         inkscape:connector-curvature="0"
         style="fill:none;stroke:#000000;stroke-width:3.43889117;stroke-miterlimit:4" />
      <path
         stroke-miterlimit="4"
         id="path4577"
         d="M 488.97476,371.13177 125.31982,223.64951"
         inkscape:connector-curvature="0"
         style="fill:none;stroke:#000000;stroke-width:3.43889117;stroke-miterlimit:4" />
      <path
         stroke-miterlimit="4"
         id="path4579"
         d="m 661.3642,806.85419 c -37.88684,26.1029 -129.97174,72.48584 -161.99207,57.40533"
         inkscape:connector-curvature="0"
         style="fill:none;stroke:#000000;stroke-width:3.43889117;stroke-miterlimit:4" />
      <path
         stroke-miterlimit="4"
         id="path4581"
         d="m 403.45841,792.48792 c 53.876,-25.44812 180.68606,92.50695 92.49459,116.11682"
         inkscape:connector-curvature="0"
         style="fill:none;stroke:#000000;stroke-width:5.15833664;stroke-miterlimit:4" />
      <path
         stroke-miterlimit="4"
         id="path4583"
         d="m 516.52368,688.0238 c 66.31476,-5.1015 149.09461,51.09491 146.19733,107.37207 -1.99933,39.54822 -7.26544,72.45612 -17.36694,85.58808"
         inkscape:connector-curvature="0"
         style="fill:none;stroke:#000000;stroke-width:3.43889117;stroke-miterlimit:4" />
      <path
         stroke-miterlimit="4"
         id="path4585"
         d="m 745.55353,801.45679 c 0,-5.05078 2.612,-138.46271 2.612,-138.46271"
         inkscape:connector-curvature="0"
         style="fill:none;stroke:#000000;stroke-width:3.43889117;stroke-miterlimit:4" />
      <path
         stroke-miterlimit="4"
         id="path4587"
         d="m 732.29895,845.80194 c -5.42712,-13.0094 14.92822,-32.6925 31.38654,-29.78461"
         inkscape:connector-curvature="0"
         style="fill:none;stroke:#000000;stroke-width:5.15833664;stroke-miterlimit:4" />
      <path
         stroke-miterlimit="4"
         id="path1901"
         d="m 855.86438,557.46551 c -39.81433,10.78492 -82.48584,31.56977 -119.44305,54.4975"
         inkscape:connector-curvature="0"
         style="fill:none;stroke:#000000;stroke-width:5.15833664;stroke-miterlimit:4" />
      <path
         stroke-miterlimit="4"
         id="path1903"
         d="M 591.87073,555.4137 723.698,615.69598"
         inkscape:connector-curvature="0"
         style="fill:none;stroke:#000000;stroke-width:5.15833664;stroke-miterlimit:4" />
      <path
         stroke-miterlimit="4"
         id="path1905"
         d="m 596.33722,575.92621 113.56525,51.44342"
         inkscape:connector-curvature="0"
         style="fill:none;stroke:#000000;stroke-width:1.71944559;stroke-miterlimit:4" />
      <path
         stroke-miterlimit="4"
         id="path1907"
         d="m 526.91406,678.4516 c 51.76032,-6.8606 117.66535,42.37439 137.46973,53.64447 22.59613,1.97888 44.19904,4.06036 69.91333,-11.65387 1.72321,-24.0481 1.40375,-24.01831 2.13416,-64.78339"
         inkscape:connector-curvature="0"
         style="fill:none;stroke:#000000;stroke-width:5.15833664;stroke-miterlimit:4" />
      <path
         stroke-miterlimit="4"
         id="path1909"
         d="m 542.13812,669.05078 c 18.68042,-32.70611 43.16657,-19.73474 89.1211,-6.21197 46.49688,13.68243 72.74823,44.30059 68.45507,61.44348"
         inkscape:connector-curvature="0"
         style="fill:none;stroke:#000000;stroke-width:1.71944559;stroke-miterlimit:4" />
      <path
         stroke-miterlimit="4"
         id="path1911"
         d="m 647.51324,636.44617 -42.70611,17.72717"
         inkscape:connector-curvature="0"
         style="fill:none;stroke:#000000;stroke-width:1.71944559;stroke-miterlimit:4" />
      <path
         stroke-miterlimit="4"
         id="path1913"
         d="m 589.88019,589.03589 -2.27289,60.10895"
         inkscape:connector-curvature="0"
         style="fill:none;stroke:#000000;stroke-width:1.71944559;stroke-miterlimit:4" />
      <path
         stroke-miterlimit="4"
         id="path1915"
         d="m 575.50781,619.80835 -0.41845,28.16046"
         inkscape:connector-curvature="0"
         style="fill:none;stroke:#000000;stroke-width:1.71944559;stroke-miterlimit:4" />
      <path
         stroke-miterlimit="4"
         id="path1917"
         d="m 642.56397,543.83411 c 12.84228,-6.11042 37.24859,-14.57349 52.84228,-20.75019 6.9621,-2.62689 36.17096,-1.28326 22.87201,10.05695 -19.13666,7.72717 -39.47345,19.48749 -62.28027,26.81854 -37.07105,-1.04596 -18.48474,-15.78607 -13.43402,-16.1253 z"
         inkscape:connector-curvature="0"
         style="fill:#c8c8c8;fill-rule:evenodd;stroke:#000000;stroke-width:3.43889117;stroke-miterlimit:4" />
      <path
         stroke-miterlimit="4"
         id="path1923"
         d="m 907.39282,838.46429 c -18.21423,8.57141 -35,60 -14.46423,70.7143 23.73077,5.05121 77.544,-22.29077 94.82141,-46.60718 14.4643,-20.35712 17.1428,-46.25 0,-46.78571 -18.21429,5.35718 -36.80688,10.30017 -53.03571,10 -10.60778,-0.19616 -18.39288,6.78571 -27.32147,12.67859 z"
         inkscape:connector-curvature="0"
         style="fill:none;stroke:#000000;stroke-width:5.15833664;stroke-miterlimit:4" />
      <path
         stroke-miterlimit="4"
         id="path1925"
         d="m 558.72644,908.85516 c -28.32636,11.65882 -44.28571,69.35138 -15.47662,71.45087 37.14288,-1.43591 65.48407,-32.87201 83.36218,-46.65265 26.31708,-20.2854 12.84228,-48.83142 12.84228,-48.83142"
         inkscape:connector-curvature="0"
         style="fill:none;stroke:#000000;stroke-width:5.15833664;stroke-miterlimit:4" />
      <path
         stroke-miterlimit="4"
         id="path1927"
         d="m 901.06366,731.8064 c -8.21741,11.70336 -25.85046,18.92547 -32.92895,27.15771 4.2857,10 7.12799,14.61749 7.12799,14.61749"
         inkscape:connector-curvature="0"
         style="fill:none;stroke:#000000;stroke-width:5.15833664;stroke-miterlimit:4" />
      <path
         stroke-miterlimit="4"
         id="path1929"
         d="m 833.78461,780.14014 c 0.15844,-17.97968 27.99456,-22.60462 36.14758,-24.01831"
         inkscape:connector-curvature="0"
         style="fill:none;stroke:#000000;stroke-width:5.15833664;stroke-miterlimit:4" />
      <path
         stroke-miterlimit="4"
         id="path2818"
         d="m 642.70178,904.07782 c -32.07855,31.15381 -81.9895,70.21307 -114.00983,60.18329"
         inkscape:connector-curvature="0"
         style="fill:none;stroke:#000000;stroke-width:5.15833664;stroke-miterlimit:4" />
      <path
         stroke-miterlimit="4"
         id="path2826"
         d="m 997.51782,842.03149 c -30.56323,25.3454 -98.65698,61.37421 -113.75726,44.02082"
         inkscape:connector-curvature="0"
         style="fill:none;stroke:#000000;stroke-width:5.15833664;stroke-miterlimit:4" />
      <path
         stroke-miterlimit="4"
         id="path2828"
         d="m 854.64996,796.15344 c 1.2627,2.02033 41.92133,52.02289 41.92133,52.02289"
         inkscape:connector-curvature="0"
         style="fill:none;stroke:#000000;stroke-width:5.15833664;stroke-miterlimit:4" />
      <path
         stroke-miterlimit="4"
         id="path2830"
         d="m 883.69183,786.05194 c 1.2627,3.28296 29.29444,47.98224 29.29444,47.98224"
         inkscape:connector-curvature="0"
         style="fill:none;stroke:#000000;stroke-width:5.15833664;stroke-miterlimit:4" />
      <path
         stroke-miterlimit="4"
         id="path3717"
         d="m 758.68549,666.09631 c 0.2525,6.94483 0.12628,33.08252 0.37878,39.17499 0.25256,5.08234 2.90417,4.76666 7.19733,3.75647 12.37439,-4.04059 34.09265,-16.92004 43.18402,-20.203"
         inkscape:connector-curvature="0"
         style="fill:#c8c8c8;fill-rule:evenodd;stroke:#000000;stroke-width:5.15833664;stroke-miterlimit:4" />
      <path
         stroke-miterlimit="4"
         id="path5489"
         d="m 704.74219,573.26733 c 12.84228,-6.11035 35.22821,-18.61407 50.82196,-24.79077 6.9621,-2.62689 37.68616,-0.77819 24.38721,10.56202 -19.13666,7.72717 -38.96839,23.02301 -61.77515,30.35406 -37.07111,-1.04596 -18.4848,-15.78607 -13.43402,-16.12531 z"
         inkscape:connector-curvature="0"
         style="fill:#c8c8c8;fill-rule:evenodd;stroke:#000000;stroke-width:3.43889117;stroke-miterlimit:4" />
      <path
         stroke-miterlimit="4"
         id="path5491"
         d="m 817.6358,795.78827 c 13.43079,-15.82843 23.62879,-20.60852 31.09681,-10.88635"
         inkscape:connector-curvature="0"
         style="fill:none;stroke:#000000;stroke-width:5.15833664;stroke-miterlimit:4" />
      <path
         stroke-miterlimit="4"
         id="path5493"
         d="m 402.7273,874.92779 c 23.73083,5.05121 58.80374,9.44617 70.83035,-4.93835 13.50659,-16.15472 -12.40421,-54.33124 -29.547,-54.86694 -15.86682,3.52606 -39.84033,34.25635 -41.28335,59.8053 z"
         inkscape:connector-curvature="0"
         style="fill:none;stroke:#000000;stroke-width:5.15833664;stroke-miterlimit:4" />
      <path
         stroke-miterlimit="4"
         id="path5495"
         d="m 468.12045,875.62805 c 46.53897,17.17212 39.06333,-16.01758 3.28302,-36.11297"
         inkscape:connector-curvature="0"
         style="fill:none;stroke:#000000;stroke-width:5.15833664;stroke-miterlimit:4" />
      <path
         stroke-miterlimit="4"
         id="path5497"
         d="m 419.02039,832.04669 c -7.64811,-9.59692 -8.0011,-29.65466 17.9302,-14.64721"
         inkscape:connector-curvature="0"
         style="fill:none;stroke:#000000;stroke-width:5.15833664;stroke-miterlimit:4" />
      <path
         stroke-miterlimit="4"
         id="path5499"
         d="M 805.60718,476.5 C 813.64288,476.67859 889,479.53571 889,479.53571 L 928.10712,494 855.78571,494.35718 805.60718,476.5 z"
         inkscape:connector-curvature="0"
         style="fill:#c8c8c8;fill-rule:evenodd;stroke:#000000;stroke-width:3.43889117;stroke-miterlimit:4" />
      <path
         stroke-miterlimit="4"
         id="path6386"
         d="m 877.39282,501.14288 c 1.07147,0.17853 56.28766,-4.052 63.03577,-0.89288 C 996.5,526.5 980.25,543.10712 972.57141,559 c -9.64282,-2.67859 -50.89282,-23.39288 -50.89282,-23.39288 0,0 16.42853,-5.53571 -23.92859,-25.35712 -13.2102,-6.51477 -15.36322,-5.42822 -20.35718,-9.10712 z"
         inkscape:connector-curvature="0"
         style="fill:#c8c8c8;fill-rule:evenodd;stroke:#000000;stroke-width:3.43889117;stroke-miterlimit:4" />
      <path
         stroke-miterlimit="4"
         id="path11698"
         d="m 591.85712,555.07141 c -27.75544,16.64929 -51.90235,69.76434 -64.64283,123.57147 55.59522,-6.42859 114.76191,42.5 136.78571,53.57141 32.14282,5.4762 51.78571,-1.5476 69.64282,-11.42859 L 736.5,656.5 721.85712,648.64288 c -5.2381,-2.26196 -5.83331,-6.30957 -6.07141,-12.14288 0,0 2.14288,-8.92859 4.64288,-13.57141 C 721.87524,620.24188 724,615.7857 724,615.7857 L 591.85712,555.07141 z"
         inkscape:connector-curvature="0"
         style="fill:#c8c8c8;fill-opacity:0.62149503;fill-rule:evenodd;stroke:#000000;stroke-width:5.15833664;stroke-miterlimit:4" />
    </g>
  </g>
</svg>
