<?xml version="1.0" encoding="UTF-8" standalone="no"?>
<!-- Created with Inkscape (http://www.inkscape.org/) -->

<svg
   xmlns:dc="http://purl.org/dc/elements/1.1/"
   xmlns:cc="http://creativecommons.org/ns#"
   xmlns:rdf="http://www.w3.org/1999/02/22-rdf-syntax-ns#"
   xmlns:svg="http://www.w3.org/2000/svg"
   xmlns="http://www.w3.org/2000/svg"
   xmlns:xlink="http://www.w3.org/1999/xlink"
   xmlns:sodipodi="http://sodipodi.sourceforge.net/DTD/sodipodi-0.dtd"
   xmlns:inkscape="http://www.inkscape.org/namespaces/inkscape"
   width="250"
   height="250"
   id="svg4472"
   version="1.1"
   inkscape:version="0.48.2 r9819"
   sodipodi:docname="cessna-top.svg"
   inkscape:export-filename="/home/nhasan/android/workspace/Airports/artwork/cessna-top.png"
   inkscape:export-xdpi="288"
   inkscape:export-ydpi="288">
  <defs
     id="defs4474">
    <linearGradient
       id="linearGradient5659">
      <stop
         style="stop-color:#ffffff;stop-opacity:1;"
         offset="0"
         id="stop5661" />
      <stop
         id="stop5663"
         offset="0.34251711"
         style="stop-color:#00000f;stop-opacity:0.24705882;" />
      <stop
         id="stop5665"
         offset="1"
         style="stop-color:#00000f;stop-opacity:0;" />
    </linearGradient>
    <linearGradient
       id="linearGradient5651">
      <stop
         style="stop-color:#ffffff;stop-opacity:1;"
         offset="0"
         id="stop5653" />
      <stop
         id="stop5655"
         offset="0.36501467"
         style="stop-color:#00000f;stop-opacity:0.24705882;" />
      <stop
         id="stop5657"
         offset="1"
         style="stop-color:#00000f;stop-opacity:0;" />
    </linearGradient>
    <linearGradient
       id="linearGradient4085">
      <stop
         id="stop4093"
         offset="0"
         style="stop-color:#ffffff;stop-opacity:1;" />
      <stop
         style="stop-color:#7f7f87;stop-opacity:0.62352941;"
         offset="0.4084239"
         id="stop5694" />
      <stop
         style="stop-color:#00000f;stop-opacity:0.24705882;"
         offset="0.63405102"
         id="stop4113" />
      <stop
         style="stop-color:#00000f;stop-opacity:0;"
         offset="1"
         id="stop4089" />
    </linearGradient>
    <marker
       inkscape:stockid="TriangleOutS"
       orient="auto"
       refY="0"
       refX="0"
       id="TriangleOutS"
       style="overflow:visible">
      <path
         id="path3905"
         d="m 5.77,0 -8.65,5 0,-10 8.65,5 z"
         style="fill-rule:evenodd;stroke:#000000;stroke-width:1pt;marker-start:none"
         transform="scale(0.2,0.2)"
         inkscape:connector-curvature="0" />
    </marker>
    <marker
       inkscape:stockid="TriangleInS"
       orient="auto"
       refY="0"
       refX="0"
       id="TriangleInS"
       style="overflow:visible">
      <path
         id="path3896"
         d="m 5.77,0 -8.65,5 0,-10 8.65,5 z"
         style="fill-rule:evenodd;stroke:#000000;stroke-width:1pt;marker-start:none"
         transform="scale(-0.2,-0.2)"
         inkscape:connector-curvature="0" />
    </marker>
    <linearGradient
       inkscape:collect="always"
       xlink:href="#linearGradient5659"
       id="linearGradient4091"
       x1="360.50001"
       y1="471.54029"
       x2="369.32869"
       y2="471.54029"
       gradientUnits="userSpaceOnUse"
       gradientTransform="matrix(1.1125068,0,0,1.1109743,-36.59095,-48.520951)" />
    <linearGradient
       inkscape:collect="always"
       xlink:href="#linearGradient4085-6"
       id="linearGradient4091-1"
       x1="360.5"
       y1="471.54028"
       x2="369.3287"
       y2="471.54028"
       gradientUnits="userSpaceOnUse" />
    <linearGradient
       id="linearGradient4085-6">
      <stop
         id="stop4093-8"
         offset="0"
         style="stop-color:#ffffff;stop-opacity:1;" />
      <stop
         style="stop-color:#00000f;stop-opacity:0.24705882;"
         offset="0.5"
         id="stop4113-0" />
      <stop
         style="stop-color:#00000f;stop-opacity:0;"
         offset="1"
         id="stop4089-4" />
    </linearGradient>
    <linearGradient
       gradientTransform="matrix(-1.1125068,0,0,1.1109743,786.52942,-48.520952)"
       y2="471.54028"
       x2="369.3287"
       y1="471.54028"
       x1="360.5"
       gradientUnits="userSpaceOnUse"
       id="linearGradient4132"
       xlink:href="#linearGradient5651"
       inkscape:collect="always" />
    <linearGradient
       inkscape:collect="always"
       xlink:href="#linearGradient4085"
       id="linearGradient5633"
       x1="360.36819"
       y1="424.4577"
       x2="380.35535"
       y2="424.4577"
       gradientUnits="userSpaceOnUse"
       gradientTransform="matrix(1.0799788,0,0,1.1109053,-24.886748,-48.491415)" />
  </defs>
  <sodipodi:namedview
     id="base"
     pagecolor="#ffffff"
     bordercolor="#666666"
     borderopacity="1.0"
     inkscape:pageopacity="0.0"
     inkscape:pageshadow="2"
     inkscape:zoom="2.4118153"
     inkscape:cx="57.515222"
     inkscape:cy="121.30136"
     inkscape:document-units="px"
     inkscape:current-layer="layer1"
     showgrid="false"
     inkscape:window-width="1600"
     inkscape:window-height="846"
     inkscape:window-x="0"
     inkscape:window-y="-3"
     inkscape:window-maximized="1"
     fit-margin-top="0"
     fit-margin-left="0"
     fit-margin-right="0"
     fit-margin-bottom="0" />
  <metadata
     id="metadata4477">
    <rdf:RDF>
      <cc:Work
         rdf:about="">
        <dc:format>image/svg+xml</dc:format>
        <dc:type
           rdf:resource="http://purl.org/dc/dcmitype/StillImage" />
        <dc:title />
      </cc:Work>
    </rdf:RDF>
  </metadata>
  <g
     inkscape:label="Layer 1"
     inkscape:groupmode="layer"
     id="layer1"
     transform="translate(-250.00001,-352.36217)">
    <path
       inkscape:connector-curvature="0"
       d="m 373.24446,570.88017 -0.28096,-18.23662 -3.09045,8.41691 -35.39974,-5.33071 c 0,0 -0.25974,-10.18061 0,-17.11436 0.0547,-1.45982 1.95648,-2.4347 3.37139,-2.80563 10.13141,-2.65604 31.7474,-6.1724 31.7474,-6.1724 l -7.58566,-60.32112 -49.44727,-0.28057 -61.80909,-9.25859 0.84286,-26.0924 5.33806,-2.80563 105.07544,-2.52507 c 0,0 -1.21225,-15.27126 -0.28094,-22.72564 0.44784,-3.58459 1.12458,-7.82758 3.9333,-10.10027 1.58579,-1.28315 6.04043,-0.98198 6.04043,-0.98198 0,0 -0.66019,-3.84408 -0.42143,-5.75155 0.18366,-1.46727 0.43457,-3.09136 1.40475,-4.20845 0.41162,-0.47394 1.07428,-0.69755 1.68571,-0.84168 0.40991,-0.0967 0.85362,-0.0967 1.26354,0 0.61142,0.14413 1.27408,0.36774 1.6857,0.84168 0.97018,1.11709 1.22109,2.74118 1.40475,4.20845 0.23877,1.90747 -0.42143,5.75155 -0.42143,5.75155 0,0 4.45463,-0.30117 6.04043,0.98198 2.80872,2.27269 3.61336,6.50205 3.93331,10.10027 0.65036,7.3141 -0.28095,22.72564 -0.28095,22.72564 l 105.07545,2.52507 5.33805,2.80563 0.84286,26.0924 -61.80909,9.25859 -49.44727,0.28057 -7.58565,60.32112 c 0,0 21.81264,3.71276 31.74739,6.1724 1.41987,0.35153 3.26971,1.34832 3.37139,2.80563 0.4564,6.54096 0,17.11436 0,17.11436 l -35.39974,5.33071 -3.09045,-8.41691 -0.0964,6.25901 -0.18453,11.97761 -1.75556,0 z"
       style="fill:#ffffff;fill-opacity:1;stroke:#000000;stroke-width:2;stroke-linecap:butt;stroke-linejoin:round;stroke-miterlimit:4;stroke-opacity:1;stroke-dasharray:none"
       sodipodi:nodetypes="ccccsscccccccsscsssssscsscccccccssccccccc"
       id="path4266" />
    <path
       style="fill:none;stroke:#000000;stroke-width:1.50000012;stroke-linecap:butt;stroke-linejoin:round;stroke-miterlimit:4;stroke-opacity:1;stroke-dasharray:none"
       d="m 256.3691,431.44018 105.07544,-3.0862"
       inkscape:connector-curvature="0"
       id="path4269" />
    <path
       style="fill:url(#linearGradient4091);fill-opacity:1;stroke:#000000;stroke-width:1.50000012;stroke-linecap:butt;stroke-linejoin:round;stroke-miterlimit:4;stroke-opacity:1;stroke-dasharray:none"
       d="m 365.02401,470.7189 8.70946,0.28056 0,8.97803 -8.14756,0 z"
       inkscape:connector-curvature="0"
       id="path4271" />
    <path
       style="fill:#808080;fill-opacity:1;stroke:#000000;stroke-width:1.50000012;stroke-linecap:butt;stroke-linejoin:round;stroke-miterlimit:4;stroke-opacity:1;stroke-dasharray:none"
       d="m 365.51408,432.98897 9.48595,0.0667 c 0,0 9.41164,-0.0252 9.7293,0.0376 l 0.0333,-3.78763 c 0.26475,-0.1091 -9.76264,-0.24173 -9.76264,-0.24173 l -9.76266,0.24171 z"
       inkscape:connector-curvature="0"
       sodipodi:nodetypes="ccccccc"
       id="path4273" />
    <use
       x="0"
       y="0"
       xlink:href="#path3070"
       id="use3096"
       style="stroke-linejoin:round" />
    <use
       x="0"
       y="0"
       xlink:href="#path3072"
       id="use3098"
       style="stroke-linejoin:round" />
    <use
       x="0"
       y="0"
       xlink:href="#path3076"
       id="use3100"
       style="stroke-linejoin:round" />
    <use
       x="0"
       y="0"
       xlink:href="#path3078"
       id="use3102"
       style="stroke-linejoin:round" />
    <use
       x="0"
       y="0"
       xlink:href="#path3080"
       id="use3104"
       style="stroke-linejoin:round" />
    <use
       x="0"
       y="0"
       xlink:href="#path3084"
       id="use3106"
       style="stroke-linejoin:round" />
    <use
       x="0"
       y="0"
       xlink:href="#path3086"
       id="use3108"
       style="stroke-linejoin:round" />
    <use
       x="0"
       y="0"
       xlink:href="#path3092"
       id="use3110"
       style="stroke-linejoin:round" />
    <path
       inkscape:connector-curvature="0"
       d="m 493.63095,431.44018 -105.07544,-3.0862"
       style="fill:none;stroke:#000000;stroke-width:1.50000012;stroke-linecap:butt;stroke-linejoin:round;stroke-miterlimit:4;stroke-opacity:1;stroke-dasharray:none"
       id="path4283" />
    <path
       inkscape:connector-curvature="0"
       d="m 386.21101,419.09588 -11.25,0 -11.25,0 0.54548,7.89 10.70452,-0.24584 10.70452,0.24584 z"
       style="fill:url(#linearGradient5633);fill-opacity:1.0;stroke:#000000;stroke-width:1.50000011999999994;stroke-linecap:butt;stroke-linejoin:round;stroke-miterlimit:4;stroke-opacity:1;stroke-dasharray:none"
       sodipodi:nodetypes="ccccccc"
       id="path4285" />
    <use
       id="use3168"
       xlink:href="#path3070"
       y="0"
       x="0"
       transform="matrix(-1,0,0,1,740.47336,0)"
       width="250"
       height="250"
       style="stroke-linejoin:round" />
    <use
       id="use3170"
       xlink:href="#path3072"
       y="0"
       x="0"
       transform="matrix(-1,0,0,1,740.47336,0)"
       width="250"
       height="250"
       style="stroke-linejoin:round" />
    <use
       id="use3172"
       xlink:href="#path3076"
       y="0"
       x="0"
       transform="matrix(-1,0,0,1,740.47336,0)"
       width="250"
       height="250"
       style="stroke-linejoin:round" />
    <use
       id="use3174"
       xlink:href="#path3078"
       y="0"
       x="0"
       transform="matrix(-1,0,0,1,740.47336,0)"
       width="250"
       height="250"
       style="stroke-linejoin:round" />
    <use
       id="use3176"
       xlink:href="#path3080"
       y="0"
       x="0"
       transform="matrix(-1,0,0,1,740.47336,0)"
       width="250"
       height="250"
       style="stroke-linejoin:round" />
    <use
       id="use3178"
       xlink:href="#path3084"
       y="0"
       x="0"
       transform="matrix(-1,0,0,1,740.47336,0)"
       width="250"
       height="250"
       style="stroke-linejoin:round" />
    <use
       id="use3180"
       xlink:href="#path3086"
       y="0"
       x="0"
       transform="matrix(-1,0,0,1,740.47336,0)"
       width="250"
       height="250"
       style="stroke-linejoin:round" />
    <use
       id="use3182"
       xlink:href="#path3092"
       y="0"
       x="0"
       transform="matrix(-1,0,0,1,740.47336,0)"
       width="250"
       height="250"
       style="stroke-linejoin:round" />
    <path
       style="fill:none;stroke:#c0c0c0;stroke-width:1.50000012;stroke-linecap:butt;stroke-linejoin:round;stroke-miterlimit:4;stroke-opacity:1;stroke-dasharray:none"
       d="m 252.46972,439.16342 245.06973,0"
       id="path3258"
       inkscape:connector-curvature="0"
       sodipodi:nodetypes="cc" />
    <path
       style="fill:none;stroke:#c0c0c0;stroke-width:1.50000012;stroke-linecap:butt;stroke-linejoin:round;stroke-miterlimit:4;stroke-opacity:1;stroke-dasharray:none"
       d="m 361.8237,468.28171 0,-28.92066"
       id="path4040"
       inkscape:connector-curvature="0"
       sodipodi:nodetypes="cc" />
    <path
       style="fill:none;stroke:#c0c0c0;stroke-width:1.50000012;stroke-linecap:butt;stroke-linejoin:round;stroke-miterlimit:4;stroke-opacity:1;stroke-dasharray:none"
       d="m 388.24573,468.23008 0,-29.06742"
       id="path4042"
       inkscape:connector-curvature="0"
       sodipodi:nodetypes="cc" />
    <path
       style="fill:none;stroke:#c0c0c0;stroke-width:1.50000012;stroke-linecap:butt;stroke-linejoin:round;stroke-miterlimit:4;stroke-opacity:1;stroke-dasharray:none"
       d="m 387.94819,458.85896 48.77299,0 0,9.09077"
       id="path4063"
       inkscape:connector-curvature="0"
       sodipodi:nodetypes="ccc" />
    <path
       inkscape:connector-curvature="0"
       id="path4065"
       d="m 361.76559,458.85898 -48.77299,0 0,9.12132"
       style="fill:none;stroke:#c0c0c0;stroke-width:1.50000012;stroke-linecap:butt;stroke-linejoin:round;stroke-miterlimit:4;stroke-opacity:1;stroke-dasharray:none"
       sodipodi:nodetypes="ccc" />
    <path
       id="path4130"
       style="fill:url(#linearGradient4132);fill-opacity:1;stroke:#000000;stroke-width:1.50000012;stroke-linecap:butt;stroke-linejoin:round;stroke-miterlimit:4;stroke-opacity:1;stroke-dasharray:none"
       d="m 384.91447,470.7189 -8.70946,0.28056 0,8.97803 8.14755,0 z"
       inkscape:connector-curvature="0" />
    <path
       style="fill:#ffffff;fill-opacity:1;stroke:#000000;stroke-width:1.50000012;stroke-linecap:butt;stroke-linejoin:round;stroke-miterlimit:4;stroke-opacity:1;stroke-dasharray:none"
       d="m 372.98602,553.43231 0.0156,-22.25112 4.03164,0.14729 0,22.09666"
       id="path4153"
       inkscape:connector-curvature="0"
       sodipodi:nodetypes="cccc" />
    <path
       style="fill:none;stroke:#000000;stroke-width:1.50000012;stroke-linecap:butt;stroke-linejoin:round;stroke-miterlimit:4;stroke-opacity:1;stroke-dasharray:none"
       d="m 373.39496,558.8237 3.53998,0"
       id="path4157"
       inkscape:connector-curvature="0" />
    <path
       style="fill:#ffffff;fill-opacity:1;stroke:#000000;stroke-width:1px;stroke-linecap:butt;stroke-linejoin:miter;stroke-opacity:1"
       d="m 378.68504,385.40748 c 0,0 18.55542,-1.00933 26.96303,0 0.92047,0.11049 1.31293,2.63204 0.39334,2.74952 -8.85248,1.13086 -26.46806,0.26517 -26.46806,0.26517"
       id="path5643"
       inkscape:connector-curvature="0"
       sodipodi:nodetypes="cssc" />
    <path
       sodipodi:nodetypes="cssc"
       inkscape:connector-curvature="0"
       id="path5647"
       d="m 371.31426,385.36329 c 0,0 -18.86478,-1.05352 -27.2724,-0.0442 -0.92046,0.11054 -1.31292,2.63204 -0.39333,2.74952 8.85248,1.13087 26.77742,0.30936 26.77742,0.30936"
       style="fill:#ffffff;fill-opacity:1;stroke:#000000;stroke-width:1px;stroke-linecap:butt;stroke-linejoin:miter;stroke-opacity:1" />
    <path
       style="fill:none;stroke:#808080;stroke-width:1px;stroke-linecap:butt;stroke-linejoin:miter;stroke-opacity:1"
       d="m 362.65,404.65391 c 0,0 8.0243,-1.4392 12.43438,-1.4392 4.41008,0 12.30179,1.52759 12.30179,1.52759"
       id="path5649"
       inkscape:connector-curvature="0"
       sodipodi:nodetypes="csc" />
    <path
       style="fill:none;stroke:#000000;stroke-width:1px;stroke-linecap:butt;stroke-linejoin:miter;stroke-opacity:1"
       d="m 371.84334,394.73794 c 0,0 2.05862,-0.26278 3.09359,-0.26516 1.0937,-0.002 3.27037,0.26516 3.27037,0.26516"
       id="path5669"
       inkscape:connector-curvature="0"
       sodipodi:nodetypes="csc" />
    <path
       style="fill:none;stroke:#c0c0c0;stroke-width:1px;stroke-linecap:butt;stroke-linejoin:miter;stroke-opacity:1"
       d="m 377.75778,550.86217 29.74992,0 0,-4.77297 7.40308,0"
       id="path5671"
       inkscape:connector-curvature="0"
       sodipodi:nodetypes="cccc" />
    <path
       sodipodi:nodetypes="cccc"
       inkscape:connector-curvature="0"
       id="path5673"
       d="m 372.26661,550.86217 -29.56277,0 0,-4.77297 -7.59067,0"
       style="fill:none;stroke:#c0c0c0;stroke-width:1px;stroke-linecap:butt;stroke-linejoin:miter;stroke-opacity:1" />
    <path
       style="fill:none;stroke:#808080;stroke-width:2;stroke-linecap:square;stroke-linejoin:miter;stroke-miterlimit:4;stroke-opacity:1;stroke-dasharray:none"
       d="m 375.05601,529.57024 0,-33.24255"
       id="path5696"
       inkscape:connector-curvature="0"
       sodipodi:nodetypes="cc" />
  </g>
</svg>
