<?xml version="1.0" encoding="UTF-8" standalone="no"?>
<!-- Created with Inkscape (http://www.inkscape.org/) -->

<svg
   width="250"
   height="250"
   id="svg4529"
   version="1.1"
   inkscape:version="1.1.2 (0a00cf5339, 2022-02-04)"
   sodipodi:docname="cessna-top-flat.svg"
   xmlns:inkscape="http://www.inkscape.org/namespaces/inkscape"
   xmlns:sodipodi="http://sodipodi.sourceforge.net/DTD/sodipodi-0.dtd"
   xmlns="http://www.w3.org/2000/svg"
   xmlns:svg="http://www.w3.org/2000/svg"
   xmlns:rdf="http://www.w3.org/1999/02/22-rdf-syntax-ns#"
   xmlns:cc="http://creativecommons.org/ns#"
   xmlns:dc="http://purl.org/dc/elements/1.1/">
  <defs
     id="defs4531" />
  <sodipodi:namedview
     id="base"
     pagecolor="#ffffff"
     bordercolor="#666666"
     borderopacity="1.0"
     inkscape:pageopacity="0.0"
     inkscape:pageshadow="2"
     inkscape:zoom="2.4560479"
     inkscape:cx="107.69334"
     inkscape:cy="160.62391"
     inkscape:document-units="px"
     inkscape:current-layer="layer1"
     showgrid="false"
     inkscape:window-width="2560"
     inkscape:window-height="1379"
     inkscape:window-x="1920"
     inkscape:window-y="0"
     inkscape:window-maximized="1"
     inkscape:pagecheckerboard="0" />
  <metadata
     id="metadata4534">
    <rdf:RDF>
      <cc:Work
         rdf:about="">
        <dc:format>image/svg+xml</dc:format>
        <dc:type
           rdf:resource="http://purl.org/dc/dcmitype/StillImage" />
      </cc:Work>
    </rdf:RDF>
  </metadata>
  <g
     inkscape:label="Layer 1"
     inkscape:groupmode="layer"
     id="layer1"
     transform="translate(0,-452.36218)">
    <path
       style="fill:#000000;fill-opacity:1;stroke:none;stroke-width:0.431365;stroke-opacity:1"
       d="m 121.48132,684.96577 c -0.0962,-0.204 -0.29453,-2.72274 -0.44062,-5.59727 l -0.26562,-5.22637 -3.21864,-0.31275 c -1.77027,-0.17197 -4.55834,-0.60972 -6.19572,-0.97281 -1.6374,-0.36309 -4.81915,-1.00026 -7.07056,-1.41595 -2.25141,-0.41568 -5.600624,-1.05262 -7.442691,-1.41538 -1.84206,-0.36276 -4.605151,-0.89716 -6.140203,-1.18757 -4.313793,-0.81602 -3.982427,-0.41553 -4.280642,-5.17383 -0.145259,-2.31805 -0.141949,-7.71279 0.0076,-11.9883 l 0.271516,-7.77368 1.205105,-1.16084 c 1.772454,-1.70734 11.330518,-4.47121 26.877415,-7.77205 0,0 2.13836,0.19981 2.68305,-0.56964 0.41073,-0.58023 -0.18974,-2.16055 -0.18974,-2.16055 -0.10437,-1.18827 -0.42393,-4.48687 -0.71012,-7.33019 -0.28621,-2.84334 -0.78212,-7.81326 -1.10203,-11.04432 -0.7805,-7.88311 -1.60088,-16.05228 -2.24179,-22.3236 -0.54653,-5.34776 -1.11312,-11.53399 -1.50936,-16.4796 -0.1256,-1.56773 -0.34112,-3.07206 -0.47893,-3.34297 -0.16599,-0.3263 -8.16382,-0.65521 -23.695007,-0.97449 -18.496896,-0.38022 -24.11197,-0.63853 -26.60759,-1.22397 -1.739734,-0.4081 -4.879616,-1.06613 -6.977515,-1.46225 -2.097898,-0.39612 -5.447107,-1.03465 -7.442683,-1.41894 -1.995564,-0.3843 -5.38664,-1.02676 -7.535718,-1.42767 -6.232716,-1.16275 -11.096171,-2.08951 -14.699299,-2.80106 -1.842074,-0.36377 -5.34288,-1.04293 -7.779569,-1.50924 l -4.430327,-0.84786 0.231766,-16.09892 c 0.12953,-8.99732 0.392711,-16.4787 0.596628,-16.95988 0.200673,-0.47354 1.503923,-1.57502 2.896109,-2.44772 l 2.531248,-1.58673 12.094357,-0.36526 c 6.651898,-0.20089 22.644367,-0.68894 35.538809,-1.08457 12.894445,-0.39563 28.258935,-0.84475 34.143321,-0.99803 l 10.69884,-0.27873 0.004,-12.51806 c 0.003,-10.67113 0.10752,-13.0381 0.70342,-16.04284 0.38447,-1.93862 0.87906,-4.0535 1.09909,-4.6997 0.89102,-2.61687 2.72395,-4.2912 5.35668,-4.89317 1.15757,-0.2647 1.39549,-0.5126 1.39549,-1.45401 v -1.13491 l -11.92219,-0.13621 c -10.099744,-0.11541 -11.979474,-0.24399 -12.296896,-0.84118 -0.53244,-1.0017 -0.203818,-5.6342 0.435957,-6.14568 0.28862,-0.23073 5.954039,-0.42275 12.589819,-0.42671 10.96346,-0.007 12.13076,-0.0823 12.78466,-0.82965 1.03259,-1.18015 6.20451,-1.18015 7.23707,0 0.6524,0.74562 1.79446,0.82309 12.22648,0.82939 8.50441,0.005 11.74959,0.16142 12.43719,0.59908 0.80969,0.51536 0.94504,0.95064 1.04368,3.35677 0.0776,1.89339 -0.0397,2.88715 -0.37212,3.15347 -0.26704,0.21389 -5.71864,0.39211 -12.11468,0.39607 l -11.6292,0.008 v 1.15364 c 0,0.96291 0.23071,1.2065 1.3955,1.47345 3.80432,0.87187 5.52428,3.39493 6.69495,9.82096 0.47304,2.59672 0.5993,5.95218 0.59514,15.81602 l -0.005,12.52004 10.63825,0.27673 c 5.85105,0.15221 21.18824,0.60173 34.0827,0.99893 12.89445,0.39719 28.88691,0.88217 35.53881,1.07773 l 12.09436,0.35555 2.53125,1.59356 c 1.39219,0.87648 2.69543,1.98103 2.89611,2.45457 0.20391,0.48119 0.4671,7.96255 0.59663,16.9599 l 0.23176,16.0989 -4.43035,0.84786 c -2.43669,0.46632 -5.93748,1.14546 -7.77955,1.50924 -1.84206,0.36376 -5.06567,0.98681 -7.16358,1.38452 -8.12387,1.54008 -11.38718,2.15752 -14.88538,2.81641 -9.62695,1.81326 -11.669,2.21998 -14.60625,2.90899 -2.49562,0.58544 -8.11069,0.84375 -26.60759,1.22397 -16.41872,0.33753 -23.52639,0.63872 -23.71785,1.00511 -0.15038,0.28772 -0.27598,1.32964 -0.27911,2.31538 -0.003,0.98571 -0.24666,3.94653 -0.54117,6.57959 -0.51781,4.62953 -1.05521,9.86753 -2.22699,21.7063 -0.61962,6.26016 -1.40889,14.13972 -2.23608,22.3236 -0.30046,2.97257 -0.63168,6.37691 -0.73603,7.56521 l -0.18974,2.16052 2.68306,0.58798 c 1.47569,0.32337 3.93901,0.88968 5.47406,1.25845 1.53507,0.3688 4.13069,0.9914 5.76808,1.38358 8.73563,2.09235 14.06106,3.72137 15.17273,4.64124 1.81933,1.50549 1.94544,2.42696 1.94544,14.21513 0,8.57268 -0.10759,11.07377 -0.48918,11.3715 -0.26905,0.20991 -1.94365,0.64174 -3.72134,0.95965 -1.7777,0.31785 -4.65558,0.86967 -6.39531,1.22628 -1.73972,0.35657 -5.00519,0.98689 -7.2566,1.40081 -2.25143,0.41386 -5.43316,1.04953 -7.07055,1.41261 -1.6374,0.36309 -4.42315,0.80065 -6.19059,0.97237 l -3.21349,0.31211 -0.32178,5.46195 -0.32177,5.4619 -3.03916,0.13589 c -1.67152,0.0747 -3.11789,-0.0311 -3.21414,-0.23503 z"
       inkscape:connector-curvature="0"
       sodipodi:nodetypes="cscssssssscsssssssssssssssscscscsssccsssscsssssscsscscsssscssscssscssssssccsssscssssssssssscccscc"
       id="path4516" />
  </g>
</svg>
