<?xml version="1.0" encoding="UTF-8" standalone="no"?>
<!-- Created with Inkscape (http://www.inkscape.org/) -->

<svg
   xmlns:dc="http://purl.org/dc/elements/1.1/"
   xmlns:cc="http://creativecommons.org/ns#"
   xmlns:rdf="http://www.w3.org/1999/02/22-rdf-syntax-ns#"
   xmlns:svg="http://www.w3.org/2000/svg"
   xmlns="http://www.w3.org/2000/svg"
   xmlns:sodipodi="http://sodipodi.sourceforge.net/DTD/sodipodi-0.dtd"
   xmlns:inkscape="http://www.inkscape.org/namespaces/inkscape"
   width="600"
   height="600"
   id="svg4529"
   version="1.1"
   inkscape:version="0.48.4 r9939"
   sodipodi:docname="cessna-top-flat.svg">
  <defs
     id="defs4531" />
  <sodipodi:namedview
     id="base"
     pagecolor="#ffffff"
     bordercolor="#666666"
     borderopacity="1.0"
     inkscape:pageopacity="0.0"
     inkscape:pageshadow="2"
     inkscape:zoom="0.9899495"
     inkscape:cx="145.38875"
     inkscape:cy="349.00887"
     inkscape:document-units="px"
     inkscape:current-layer="layer1"
     showgrid="false"
     inkscape:window-width="1600"
     inkscape:window-height="853"
     inkscape:window-x="0"
     inkscape:window-y="-3"
     inkscape:window-maximized="1" />
  <metadata
     id="metadata4534">
    <rdf:RDF>
      <cc:Work
         rdf:about="">
        <dc:format>image/svg+xml</dc:format>
        <dc:type
           rdf:resource="http://purl.org/dc/dcmitype/StillImage" />
        <dc:title />
      </cc:Work>
    </rdf:RDF>
  </metadata>
  <g
     inkscape:label="Layer 1"
     inkscape:groupmode="layer"
     id="layer1"
     transform="translate(0,-452.36218)">
    <path
       style="fill:#cbffff;fill-opacity:1"
       d="m 292.81052,1000.0784 c -0.22394,-0.47123 -0.68523,-6.28928 -1.02512,-12.92918 l -0.618,-12.07245 -7.4884,-0.72244 c -4.11864,-0.39723 -10.60528,-1.4084 -14.41478,-2.2471 -3.80951,-0.8387 -11.21207,-2.31051 -16.45015,-3.27071 -5.23806,-0.96019 -13.03024,-2.43145 -17.31593,-3.2694 -4.28568,-0.83795 -10.71422,-2.07238 -14.28563,-2.74319 -10.03633,-1.88494 -9.26539,-0.95982 -9.9592,-11.9511 -0.33797,-5.35447 -0.33026,-17.81581 0.0172,-27.69187 l 0.63171,-17.95652 2.80377,-2.68143 c 4.12373,-3.9438 26.36126,-10.3281 62.53217,-17.95273 0,0 4.97506,0.46153 6.24232,-1.31583 0.95559,-1.34027 -0.44145,-4.99066 -0.44145,-4.99066 -0.24281,-2.74483 -0.98629,-10.36429 -1.65215,-16.93211 -0.66588,-6.56783 -1.81963,-18.04793 -2.56393,-25.51137 -1.8159,-18.20929 -3.72457,-37.07933 -5.21568,-51.56555 -1.27154,-12.35282 -2.58976,-26.64247 -3.51165,-38.06637 -0.29224,-3.62133 -0.79365,-7.09621 -1.11425,-7.72197 -0.38618,-0.75372 -18.99371,-1.51349 -55.12811,-2.25098 -43.03433,-0.87829 -56.0982,-1.47495 -61.90444,-2.82727 -4.04761,-0.94267 -11.35277,-2.46265 -16.23368,-3.37766 -4.88091,-0.91501 -12.67308,-2.38996 -17.31593,-3.27762 -4.64282,-0.88769 -12.5324,-2.37173 -17.53238,-3.29781 -14.500857,-2.68586 -25.81603,-4.82658 -34.198964,-6.47019 -4.285717,-0.84028 -12.430589,-2.40907 -18.099717,-3.48621 L 38.260679,711.5402 38.7999,674.35316 c 0.301359,-20.78303 0.913668,-38.06434 1.388098,-39.17583 0.466878,-1.09384 3.49898,-3.63815 6.738003,-5.65401 l 5.889126,-3.66521 28.13838,-0.84371 c 15.47611,-0.46405 52.683723,-1.5914 82.683563,-2.50525 29.99984,-0.91388 65.7464,-1.9513 79.43683,-2.30538 l 24.89164,-0.64382 0.0102,-28.91561 c 0.008,-24.64936 0.25015,-30.11686 1.63655,-37.05753 0.89448,-4.47805 2.04519,-9.36322 2.55711,-10.85589 2.07302,-6.04472 6.33746,-9.91228 12.46269,-11.3028 2.69316,-0.61141 3.24671,-1.18405 3.24671,-3.35861 l 0,-2.62155 -27.73782,-0.31464 c -23.49776,-0.26657 -27.87108,-0.56359 -28.60959,-1.94304 -1.23876,-2.31385 -0.4742,-13.0145 1.01429,-14.19598 0.67149,-0.53296 13.85246,-0.97651 29.29108,-0.98566 25.50727,-0.015 28.22308,-0.19009 29.74443,-1.9164 2.40238,-2.72606 14.4352,-2.72606 16.83757,0 1.51783,1.72232 4.17492,1.90127 28.44575,1.9158 19.78613,0.0121 27.33627,0.37289 28.936,1.38383 1.88381,1.19044 2.1987,2.19589 2.4282,7.75383 0.1806,4.37355 -0.0923,6.66907 -0.86578,7.28425 -0.62125,0.49405 -13.30479,0.90574 -28.18566,0.91488 l -27.05613,0.0167 0,2.66481 c 0,2.22423 0.53674,2.7869 3.24672,3.40353 8.85102,2.01395 12.85263,7.84198 15.57626,22.68554 1.10058,5.99818 1.39434,13.749 1.38465,36.53359 l -0.0123,28.92018 24.75063,0.63924 c 13.61288,0.35157 49.29597,1.38991 79.29582,2.30743 29.99985,0.91748 67.20745,2.03775 82.68356,2.48946 l 28.13838,0.82127 5.88913,3.681 c 3.23903,2.02456 6.27112,4.57599 6.73801,5.66983 0.47442,1.11149 1.08674,18.39279 1.3881,39.17584 l 0.53922,37.18704 -10.30752,1.95846 c -5.66913,1.07715 -13.81398,2.64593 -18.09968,3.48623 -4.28569,0.84026 -11.78566,2.27941 -16.66658,3.19809 -18.90076,3.55747 -26.49309,4.98372 -34.63187,6.50569 -22.3978,4.18845 -27.14878,5.12791 -33.9825,6.7195 -5.80623,1.35232 -18.87011,1.94897 -61.90444,2.82726 -38.1993,0.77964 -54.73581,1.47537 -55.18127,2.3217 -0.34986,0.66462 -0.64207,3.07137 -0.64935,5.34831 -0.007,2.27693 -0.57388,9.11614 -1.25906,15.19826 -1.20476,10.69384 -2.45505,22.79313 -5.18127,50.13964 -1.44158,14.46039 -3.27788,32.66148 -5.2024,51.56553 -0.69905,6.86637 -1.46963,14.73008 -1.71243,17.47493 l -0.44143,4.99062 6.24231,1.35816 c 3.4333,0.74698 9.16439,2.05511 12.73581,2.90694 3.57141,0.85186 9.61035,2.29003 13.41983,3.19593 20.32409,4.83314 32.71407,8.59602 35.30044,10.72085 4.2328,3.47755 4.5262,5.60606 4.5262,32.8357 0,19.80212 -0.25032,25.57938 -1.1381,26.26712 -0.62597,0.48487 -4.52207,1.48238 -8.65798,2.2167 -4.13592,0.73422 -10.83151,2.00887 -14.87912,2.83261 -4.04759,0.82364 -11.64495,2.27964 -16.88302,3.23573 -5.23807,0.95598 -12.64063,2.42434 -16.45013,3.26303 -3.80952,0.8387 -10.29077,1.84941 -14.40282,2.24607 l -7.47644,0.72095 -0.74862,12.61661 -0.74865,12.61649 -7.0708,0.3139 c -3.88893,0.1726 -7.25399,-0.072 -7.47794,-0.5429 z"
       inkscape:connector-curvature="0"
       sodipodi:nodetypes="cscssssssscsssssssssssssssscscscsssccsssscsssssscsscscsssscssscssscssssssccsssscssssssssssscccscc"
       id="path4516" />
  </g>
</svg>
