<?xml version="1.0" encoding="UTF-8" standalone="no"?>
<!-- Created with Inkscape (http://www.inkscape.org/) -->

<svg
   xmlns:osb="http://www.openswatchbook.org/uri/2009/osb"
   xmlns:dc="http://purl.org/dc/elements/1.1/"
   xmlns:cc="http://creativecommons.org/ns#"
   xmlns:rdf="http://www.w3.org/1999/02/22-rdf-syntax-ns#"
   xmlns:svg="http://www.w3.org/2000/svg"
   xmlns="http://www.w3.org/2000/svg"
   xmlns:sodipodi="http://sodipodi.sourceforge.net/DTD/sodipodi-0.dtd"
   xmlns:inkscape="http://www.inkscape.org/namespaces/inkscape"
   width="320"
   height="320"
   id="svg4472"
   version="1.1"
   inkscape:version="0.48.4 r9939"
   sodipodi:docname="content_discard.svg"
   inkscape:export-filename="/home/nhasan/android/workspace/Airports/res/drawable-xhdpi/ic_action_refresh.png"
   inkscape:export-xdpi="18"
   inkscape:export-ydpi="18">
  <defs
     id="defs4474">
    <linearGradient
       id="linearGradient4456"
       osb:paint="solid">
      <stop
         style="stop-color:#000000;stop-opacity:1;"
         offset="0"
         id="stop4458" />
    </linearGradient>
    <marker
       inkscape:stockid="TriangleOutS"
       orient="auto"
       refY="0"
       refX="0"
       id="TriangleOutS"
       style="overflow:visible">
      <path
         id="path3905"
         d="m 5.77,0 -8.65,5 0,-10 8.65,5 z"
         style="fill-rule:evenodd;stroke:#000000;stroke-width:1pt;marker-start:none"
         transform="scale(0.2,0.2)"
         inkscape:connector-curvature="0" />
    </marker>
    <marker
       inkscape:stockid="TriangleInS"
       orient="auto"
       refY="0"
       refX="0"
       id="TriangleInS"
       style="overflow:visible">
      <path
         id="path3896"
         d="m 5.77,0 -8.65,5 0,-10 8.65,5 z"
         style="fill-rule:evenodd;stroke:#000000;stroke-width:1pt;marker-start:none"
         transform="scale(-0.2,-0.2)"
         inkscape:connector-curvature="0" />
    </marker>
    <clipPath
       clipPathUnits="userSpaceOnUse"
       id="clipPath18">
      <path
         inkscape:connector-curvature="0"
         d="m 0,2221 1709,0 L 1709,0 0,0 0,2221 z"
         id="path20" />
    </clipPath>
    <clipPath
       clipPathUnits="userSpaceOnUse"
       id="clipPath60">
      <path
         inkscape:connector-curvature="0"
         d="m 0,2221 1709,0 L 1709,0 0,0 0,2221 z"
         id="path62" />
    </clipPath>
    <clipPath
       clipPathUnits="userSpaceOnUse"
       id="clipPath16">
      <path
         inkscape:connector-curvature="0"
         d="M 0,96 96,96 96,0 0,0 0,96 z"
         id="path18" />
    </clipPath>
    <clipPath
       clipPathUnits="userSpaceOnUse"
       id="clipPath1310">
      <path
         inkscape:connector-curvature="0"
         d="M 0,96 96,96 96,0 0,0 0,96 z"
         id="path1312" />
    </clipPath>
    <clipPath
       clipPathUnits="userSpaceOnUse"
       id="clipPath1256">
      <path
         inkscape:connector-curvature="0"
         d="M 0,96 96,96 96,0 0,0 0,96 z"
         id="path1258" />
    </clipPath>
  </defs>
  <sodipodi:namedview
     id="base"
     pagecolor="#ffffff"
     bordercolor="#666666"
     borderopacity="1.0"
     inkscape:pageopacity="0"
     inkscape:pageshadow="2"
     inkscape:zoom="1.3129104"
     inkscape:cx="137.16293"
     inkscape:cy="176.81856"
     inkscape:document-units="px"
     inkscape:current-layer="g14"
     showgrid="false"
     inkscape:window-width="1600"
     inkscape:window-height="853"
     inkscape:window-x="0"
     inkscape:window-y="-3"
     inkscape:window-maximized="1"
     fit-margin-top="0"
     fit-margin-left="0"
     fit-margin-right="0"
     fit-margin-bottom="0"
     inkscape:showpageshadow="false" />
  <metadata
     id="metadata4477">
    <rdf:RDF>
      <cc:Work
         rdf:about="">
        <dc:format>image/svg+xml</dc:format>
        <dc:type
           rdf:resource="http://purl.org/dc/dcmitype/StillImage" />
        <dc:title></dc:title>
      </cc:Work>
    </rdf:RDF>
  </metadata>
  <g
     inkscape:label="Layer 1"
     inkscape:groupmode="layer"
     id="layer1"
     transform="translate(-250.00001,-282.36217)">
    <g
       transform="matrix(3.6310144,0,0,-3.6288089,235.70991,615.45236)"
       id="g12"
       style="fill:#ffffff;fill-opacity:0.80000001;stroke:none">
      <g
         id="g14"
         clip-path="url(#clipPath16)"
         style="fill:#ffffff;fill-opacity:0.80000001;stroke:none">
        <g
           style="fill:#333333;fill-opacity:0.6;display:inline"
           id="g1252"
           transform="matrix(0.98119856,0,0,0.98179489,0.90275899,0.57244996)">
          <g
             id="g1254"
             clip-path="url(#clipPath1256)"
             style="fill:#333333;fill-opacity:0.6">
            <g
               id="g1260"
               transform="translate(68.917,54.1582)"
               style="fill:#333333;fill-opacity:0.6">
              <path
                 d="m 0,0 c -0.046,0.281 -0.218,0.557 -0.476,0.82 -2.079,-2.112 -10.444,-2.462 -20.445,-2.462 -10.001,0 -18.358,0.35 -20.446,2.462 C -41.624,0.557 -41.784,0.281 -41.843,0 l -0.019,0 0.006,-0.152 c 0,-0.018 -0.006,-0.036 -0.006,-0.054 0,-0.041 0.011,-0.077 0.017,-0.116 l 1.628,-33.354 0.004,0 c 0.145,-2.615 3.139,-6.568 19.292,-6.568 16.155,0 19.151,3.953 19.292,6.568 l 0.012,0 1.63,33.354 c 0.003,0.039 0.015,0.075 0.015,0.116 0,0.018 -0.012,0.036 -0.012,0.054 L 0.028,0 0,0 z"
                 style="fill:#333333;fill-opacity:0.6;fill-rule:nonzero;stroke:none"
                 id="path1262"
                 inkscape:connector-curvature="0" />
            </g>
            <g
               id="g1264"
               transform="translate(42.1611,71.9404)"
               style="fill:#333333;fill-opacity:0.6">
              <path
                 d="m 0,0 -0.657,-0.041 0,3.262 c 0,1.426 0.199,2.594 0.434,2.594 l 3.032,0 5.193,0 3.027,0 c 0.24,0 0.435,-1.168 0.435,-2.594 l 0,-3.209 C 9.658,0.105 7.779,0.164 5.835,0.164 3.82,0.164 1.863,0.105 0,0 m 15.789,-0.326 0,7.875 c 0,1.422 -1.164,2.597 -2.595,2.597 l -15.586,0 c -1.421,0 -2.59,-1.175 -2.59,-2.597 l 0,-7.965 C -12.688,-1.29 -17.963,-3.06 -17.963,-5.11 l 0,-3.893 c 0,-0.799 0.809,-1.559 2.26,-2.244 3.801,-1.786 12.017,-3.024 21.538,-3.024 9.528,0 17.741,1.238 21.547,3.024 1.442,0.685 2.259,1.445 2.259,2.244 l 0,3.893 c 0,2.122 -5.682,3.949 -13.852,4.784"
                 style="fill:#333333;fill-opacity:0.6;fill-rule:nonzero;stroke:none"
                 id="path1266"
                 inkscape:connector-curvature="0" />
            </g>
          </g>
        </g>
      </g>
    </g>
  </g>
</svg>
