<?xml version="1.0" encoding="UTF-8" standalone="no"?>
<!-- Created with Inkscape (http://www.inkscape.org/) -->

<svg
   xmlns:osb="http://www.openswatchbook.org/uri/2009/osb"
   xmlns:dc="http://purl.org/dc/elements/1.1/"
   xmlns:cc="http://creativecommons.org/ns#"
   xmlns:rdf="http://www.w3.org/1999/02/22-rdf-syntax-ns#"
   xmlns:svg="http://www.w3.org/2000/svg"
   xmlns="http://www.w3.org/2000/svg"
   xmlns:sodipodi="http://sodipodi.sourceforge.net/DTD/sodipodi-0.dtd"
   xmlns:inkscape="http://www.inkscape.org/namespaces/inkscape"
   width="320"
   height="320"
   id="svg4472"
   version="1.1"
   inkscape:version="0.48.4 r9939"
   sodipodi:docname="content_draw.svg"
   inkscape:export-filename="/home/nhasan/android/workspace/Airports/res/drawable-xhdpi/ic_action_refresh.png"
   inkscape:export-xdpi="18"
   inkscape:export-ydpi="18">
  <defs
     id="defs4474">
    <linearGradient
       id="linearGradient4456"
       osb:paint="solid">
      <stop
         style="stop-color:#000000;stop-opacity:1;"
         offset="0"
         id="stop4458" />
    </linearGradient>
    <marker
       inkscape:stockid="TriangleOutS"
       orient="auto"
       refY="0"
       refX="0"
       id="TriangleOutS"
       style="overflow:visible">
      <path
         id="path3905"
         d="m 5.77,0 -8.65,5 0,-10 8.65,5 z"
         style="fill-rule:evenodd;stroke:#000000;stroke-width:1pt;marker-start:none"
         transform="scale(0.2,0.2)"
         inkscape:connector-curvature="0" />
    </marker>
    <marker
       inkscape:stockid="TriangleInS"
       orient="auto"
       refY="0"
       refX="0"
       id="TriangleInS"
       style="overflow:visible">
      <path
         id="path3896"
         d="m 5.77,0 -8.65,5 0,-10 8.65,5 z"
         style="fill-rule:evenodd;stroke:#000000;stroke-width:1pt;marker-start:none"
         transform="scale(-0.2,-0.2)"
         inkscape:connector-curvature="0" />
    </marker>
    <clipPath
       clipPathUnits="userSpaceOnUse"
       id="clipPath18">
      <path
         inkscape:connector-curvature="0"
         d="m 0,2221 1709,0 L 1709,0 0,0 0,2221 z"
         id="path20" />
    </clipPath>
    <clipPath
       clipPathUnits="userSpaceOnUse"
       id="clipPath60">
      <path
         inkscape:connector-curvature="0"
         d="m 0,2221 1709,0 L 1709,0 0,0 0,2221 z"
         id="path62" />
    </clipPath>
    <clipPath
       clipPathUnits="userSpaceOnUse"
       id="clipPath16">
      <path
         inkscape:connector-curvature="0"
         d="M 0,96 96,96 96,0 0,0 0,96 z"
         id="path18" />
    </clipPath>
    <clipPath
       clipPathUnits="userSpaceOnUse"
       id="clipPath1310">
      <path
         inkscape:connector-curvature="0"
         d="M 0,96 96,96 96,0 0,0 0,96 z"
         id="path1312" />
    </clipPath>
  </defs>
  <sodipodi:namedview
     id="base"
     pagecolor="#ffffff"
     bordercolor="#666666"
     borderopacity="1.0"
     inkscape:pageopacity="0"
     inkscape:pageshadow="2"
     inkscape:zoom="1.3129104"
     inkscape:cx="137.16293"
     inkscape:cy="176.81856"
     inkscape:document-units="px"
     inkscape:current-layer="g14"
     showgrid="false"
     inkscape:window-width="1600"
     inkscape:window-height="853"
     inkscape:window-x="0"
     inkscape:window-y="-3"
     inkscape:window-maximized="1"
     fit-margin-top="0"
     fit-margin-left="0"
     fit-margin-right="0"
     fit-margin-bottom="0"
     inkscape:showpageshadow="false" />
  <metadata
     id="metadata4477">
    <rdf:RDF>
      <cc:Work
         rdf:about="">
        <dc:format>image/svg+xml</dc:format>
        <dc:type
           rdf:resource="http://purl.org/dc/dcmitype/StillImage" />
        <dc:title></dc:title>
      </cc:Work>
    </rdf:RDF>
  </metadata>
  <g
     inkscape:label="Layer 1"
     inkscape:groupmode="layer"
     id="layer1"
     transform="translate(-250.00001,-282.36217)">
    <g
       transform="matrix(3.6310144,0,0,-3.6288089,235.70991,615.45236)"
       id="g12"
       style="fill:#ffffff;fill-opacity:0.80000001;stroke:none">
      <g
         id="g14"
         clip-path="url(#clipPath16)"
         style="fill:#ffffff;fill-opacity:0.80000001;stroke:none">
        <g
           style="display:inline;fill:#333333;fill-opacity:0.60000002"
           id="g1306"
           transform="matrix(0.95503566,0,0,0.95561613,2.1584977,1.8291458)">
          <g
             id="g1308"
             clip-path="url(#clipPath1310)"
             style="fill:#333333;fill-opacity:0.60000002">
            <g
               id="g1314"
               transform="translate(46.7627,64.7656)"
               style="fill:#333333;fill-opacity:0.60000002">
              <path
                 d="m 0,0 -23.515,-23.748 c 0,0 2.029,-1.913 7.241,-1.683 1.114,-2.374 2.169,-5.169 8.256,-8.029 -0.246,-4.967 2.145,-7.755 2.145,-7.755 l 23.531,23.726 c -0.286,3.237 -2.708,7.267 -6.549,11.065 C 5.856,-1.219 1.461,-0.205 0,0"
                 style="fill:#333333;fill-opacity:0.60000002;fill-rule:nonzero;stroke:none"
                 id="path1316"
                 inkscape:connector-curvature="0" />
            </g>
            <g
               id="g1318"
               transform="translate(80.7813,81.748)"
               style="fill:#333333;fill-opacity:0.60000002">
              <path
                 d="m 0,0 c -6.904,5.659 -11.676,4 -14.107,1.658 -0.845,-0.817 -3.516,-2.968 -5.469,-4.533 2.199,-0.141 6.617,-1.09 11.468,-5.891 4.825,-4.777 5.746,-8.861 5.798,-11.14 1.641,2.121 4.216,5.442 4.615,5.844 C 4.962,-11.355 6.904,-5.658 0,0"
                 style="fill:#333333;fill-opacity:0.60000002;fill-rule:nonzero;stroke:none"
                 id="path1320"
                 inkscape:connector-curvature="0" />
            </g>
            <g
               id="g1322"
               transform="translate(27.0459,36.502)"
               style="fill:#333333;fill-opacity:0.60000002">
              <path
                 d="m 0,0 c -4.659,-0.012 -5.748,1.031 -5.748,1.031 l -10.818,-27.11 27.004,11.218 c 0,0 -2.143,4.243 -2.088,6.515 C 6.463,-7.746 1.516,-4.739 0,0"
                 style="fill:#333333;fill-opacity:0.60000002;fill-rule:nonzero;stroke:none"
                 id="path1324"
                 inkscape:connector-curvature="0" />
            </g>
            <g
               id="g1326"
               transform="translate(58.1689,76.2656)"
               style="fill:#333333;fill-opacity:0.60000002">
              <path
                 d="m 0,0 -2.681,-2.638 c 0,0 5.119,-0.833 11.186,-6.845 3.807,-3.781 5.862,-7.779 6.229,-10.572 l 2.56,2.553 c 0,0 0.891,4.625 -5.69,11.201 C 5.14,0.164 0,0 0,0"
                 style="fill:#333333;fill-opacity:0.60000002;fill-rule:nonzero;stroke:none"
                 id="path1328"
                 inkscape:connector-curvature="0" />
            </g>
            <g
               id="g1330"
               transform="translate(53.1113,70.3398)"
               style="fill:#333333;fill-opacity:0.60000002">
              <path
                 d="m 0,0 -2.562,-2.526 c 0,0 4.904,-0.797 10.707,-6.559 3.645,-3.614 5.615,-7.439 5.968,-10.116 l 2.448,2.45 c 0,0 0.851,4.425 -5.448,10.722 C 4.929,0.158 0,0 0,0"
                 style="fill:#333333;fill-opacity:0.60000002;fill-rule:nonzero;stroke:none"
                 id="path1332"
                 inkscape:connector-curvature="0" />
            </g>
          </g>
        </g>
      </g>
    </g>
  </g>
</svg>
