<?xml version="1.0" encoding="UTF-8" standalone="no"?>
<!-- Created with Inkscape (http://www.inkscape.org/) -->

<svg
   xmlns:osb="http://www.openswatchbook.org/uri/2009/osb"
   xmlns:dc="http://purl.org/dc/elements/1.1/"
   xmlns:cc="http://creativecommons.org/ns#"
   xmlns:rdf="http://www.w3.org/1999/02/22-rdf-syntax-ns#"
   xmlns:svg="http://www.w3.org/2000/svg"
   xmlns="http://www.w3.org/2000/svg"
   xmlns:xlink="http://www.w3.org/1999/xlink"
   xmlns:sodipodi="http://sodipodi.sourceforge.net/DTD/sodipodi-0.dtd"
   xmlns:inkscape="http://www.inkscape.org/namespaces/inkscape"
   width="744.09448819"
   height="1052.3622047"
   id="svg2"
   version="1.1"
   inkscape:version="0.48.2 r9819"
   sodipodi:docname="freq.svg"
   inkscape:export-filename="/home/nhasan/android/workspace/Airports/artwork/freq.png"
   inkscape:export-xdpi="51.369999"
   inkscape:export-ydpi="51.369999">
  <defs
     id="defs4">
    <linearGradient
       id="linearGradient3855"
       osb:paint="solid">
      <stop
         style="stop-color:#bf0000;stop-opacity:1;"
         offset="0"
         id="stop3857" />
    </linearGradient>
    <linearGradient
       id="linearGradient3793"
       osb:paint="solid">
      <stop
         style="stop-color:#000000;stop-opacity:1;"
         offset="0"
         id="stop3795" />
    </linearGradient>
    <linearGradient
       id="linearGradient3787"
       osb:paint="solid">
      <stop
         style="stop-color:#000000;stop-opacity:1;"
         offset="0"
         id="stop3789" />
    </linearGradient>
    <linearGradient
       id="linearGradient3781"
       osb:paint="solid">
      <stop
         style="stop-color:#000000;stop-opacity:1;"
         offset="0"
         id="stop3783" />
    </linearGradient>
    <linearGradient
       id="linearGradient3775"
       osb:paint="solid">
      <stop
         style="stop-color:#ffffff;stop-opacity:1;"
         offset="0"
         id="stop3777" />
    </linearGradient>
    <linearGradient
       inkscape:collect="always"
       xlink:href="#linearGradient3855"
       id="linearGradient3859"
       x1="115.15739"
       y1="452.33157"
       x2="551.70062"
       y2="518.13605"
       gradientUnits="userSpaceOnUse" />
  </defs>
  <sodipodi:namedview
     id="base"
     pagecolor="#ffffff"
     bordercolor="#666666"
     borderopacity="1.0"
     inkscape:pageopacity="0.0"
     inkscape:pageshadow="2"
     inkscape:zoom="1.4916131"
     inkscape:cx="339.75415"
     inkscape:cy="622.47094"
     inkscape:document-units="px"
     inkscape:current-layer="layer1"
     showgrid="false"
     inkscape:window-width="1600"
     inkscape:window-height="846"
     inkscape:window-x="0"
     inkscape:window-y="-3"
     inkscape:window-maximized="1" />
  <metadata
     id="metadata7">
    <rdf:RDF>
      <cc:Work
         rdf:about="">
        <dc:format>image/svg+xml</dc:format>
        <dc:type
           rdf:resource="http://purl.org/dc/dcmitype/StillImage" />
        <dc:title></dc:title>
      </cc:Work>
    </rdf:RDF>
  </metadata>
  <g
     inkscape:label="Layer 1"
     inkscape:groupmode="layer"
     id="layer1">
    <path
       style="fill:#a6a6a6;fill-opacity:1;stroke:none"
       d="m 352.73168,207.1657 c -123.85199,0 -224.25,100.39801 -224.25,224.25 0,123.85199 100.39801,224.28125 224.25,224.28125 123.85199,0 224.28125,-100.42926 224.28125,-224.28125 0,-123.85199 -100.42926,-224.25 -224.28125,-224.25 z m -4.0625,54.8125 c 55.39872,-0.29723 110.02964,25.99132 143.59375,75.0625 39.84638,58.25594 40.14658,135.01168 0.78125,193.59375 l -20.75,-13.9375 c 33.69962,-50.15056 33.45518,-115.65987 -0.65625,-165.53125 -46.07483,-67.36201 -137.70049,-84.57482 -205.0625,-38.5 -67.36201,46.07483 -84.51233,137.66925 -38.4375,205.03125 l -20.65625,14.09375 c -53.70258,-78.51389 -33.51389,-186.04742 45,-239.75 29.44271,-20.13848 62.94827,-29.88416 96.1875,-30.0625 z m 2.78125,55.40625 c 35.28067,0.44316 69.93185,16.89046 92.25,47.5 29.42879,40.36182 29.63709,95.17709 0.5,135.75 l -20.3125,-14.59375 c 22.89679,-31.88341 22.75102,-74.71997 -0.375,-106.4375 -29.62846,-40.63569 -86.20806,-49.50346 -126.84375,-19.875 -40.63568,29.62846 -49.50346,86.20807 -19.875,126.84375 l -20.21875,14.75 c -37.58846,-51.55289 -26.20915,-124.22403 25.34375,-161.8125 20.94337,-15.27031 45.39183,-22.42821 69.53125,-22.125 z m -3.71875,73.1875 c 24.25984,0 43.9375,19.67766 43.9375,43.9375 0,17.38756 -10.12257,32.41818 -24.78125,39.53125 l 0,142.90625 -39.40625,0 0,-143.46875 c -14.0599,-7.31654 -23.65625,-22.01434 -23.65625,-38.96875 0,-24.25984 19.64641,-43.9375 43.90625,-43.9375 z"
       id="path2995"
       inkscape:connector-curvature="0" />
  </g>
</svg>
