<?xml version="1.0" encoding="UTF-8" standalone="no"?>
<!-- Created with Inkscape (http://www.inkscape.org/) -->

<svg
   xmlns:osb="http://www.openswatchbook.org/uri/2009/osb"
   xmlns:dc="http://purl.org/dc/elements/1.1/"
   xmlns:cc="http://creativecommons.org/ns#"
   xmlns:rdf="http://www.w3.org/1999/02/22-rdf-syntax-ns#"
   xmlns:svg="http://www.w3.org/2000/svg"
   xmlns="http://www.w3.org/2000/svg"
   xmlns:xlink="http://www.w3.org/1999/xlink"
   xmlns:sodipodi="http://sodipodi.sourceforge.net/DTD/sodipodi-0.dtd"
   xmlns:inkscape="http://www.inkscape.org/namespaces/inkscape"
   width="250"
   height="250"
   id="svg2"
   version="1.1"
   inkscape:version="0.48.2 r9819"
   sodipodi:docname="freq.svg"
   inkscape:export-filename="/home/nhasan/android/workspace/Airports/artwork/freq.png"
   inkscape:export-xdpi="288"
   inkscape:export-ydpi="288">
  <defs
     id="defs4">
    <linearGradient
       id="linearGradient3855"
       osb:paint="solid">
      <stop
         style="stop-color:#bf0000;stop-opacity:1;"
         offset="0"
         id="stop3857" />
    </linearGradient>
    <linearGradient
       id="linearGradient3793"
       osb:paint="solid">
      <stop
         style="stop-color:#000000;stop-opacity:1;"
         offset="0"
         id="stop3795" />
    </linearGradient>
    <linearGradient
       id="linearGradient3787"
       osb:paint="solid">
      <stop
         style="stop-color:#000000;stop-opacity:1;"
         offset="0"
         id="stop3789" />
    </linearGradient>
    <linearGradient
       id="linearGradient3781"
       osb:paint="solid">
      <stop
         style="stop-color:#000000;stop-opacity:1;"
         offset="0"
         id="stop3783" />
    </linearGradient>
    <linearGradient
       id="linearGradient3775"
       osb:paint="solid">
      <stop
         style="stop-color:#ffffff;stop-opacity:1;"
         offset="0"
         id="stop3777" />
    </linearGradient>
    <linearGradient
       inkscape:collect="always"
       xlink:href="#linearGradient3855"
       id="linearGradient3859"
       x1="115.15739"
       y1="452.33157"
       x2="551.70062"
       y2="518.13605"
       gradientUnits="userSpaceOnUse" />
  </defs>
  <sodipodi:namedview
     id="base"
     pagecolor="#ffffff"
     bordercolor="#666666"
     borderopacity="1.0"
     inkscape:pageopacity="0.0"
     inkscape:pageshadow="2"
     inkscape:zoom="1.4916131"
     inkscape:cx="119.39874"
     inkscape:cy="108.13382"
     inkscape:document-units="px"
     inkscape:current-layer="layer1"
     showgrid="false"
     inkscape:window-width="1600"
     inkscape:window-height="846"
     inkscape:window-x="0"
     inkscape:window-y="-3"
     inkscape:window-maximized="1" />
  <metadata
     id="metadata7">
    <rdf:RDF>
      <cc:Work
         rdf:about="">
        <dc:format>image/svg+xml</dc:format>
        <dc:type
           rdf:resource="http://purl.org/dc/dcmitype/StillImage" />
        <dc:title></dc:title>
      </cc:Work>
    </rdf:RDF>
  </metadata>
  <g
     inkscape:label="Layer 1"
     inkscape:groupmode="layer"
     id="layer1"
     transform="translate(0,-802.36218)">
    <path
       style="fill:#a6a6a6;fill-opacity:1;stroke:none"
       d="m 124.99164,807.36218 c -66.270698,0 -119.9916405,53.72094 -119.9916405,119.99162 0,66.27068 53.7209425,120.0084 119.9916405,120.0084 C 191.26233,1047.3622 245,993.62448 245,927.3538 245,861.08312 191.26233,807.36218 124.99164,807.36218 z m -2.17376,29.32906 c 29.64272,-0.15905 58.87464,13.90742 76.83411,40.16442 21.32099,31.17157 21.48161,72.24201 0.41802,103.58808 l -11.1029,-7.45767 C 206.9991,946.15152 206.8683,911.09882 188.61597,884.41366 163.96225,848.36961 114.93522,839.1594 78.891172,863.81309 42.847119,888.46679 33.670328,937.47711 58.324046,973.52115 l -11.052745,7.54128 C 18.536137,939.05124 29.338692,881.51222 71.349892,852.77707 87.104084,842.00138 105.03224,836.78667 122.81788,836.69124 z m 1.48818,29.64676 c 18.87798,0.23712 37.41912,9.03773 49.36112,25.41628 15.74675,21.5968 15.85819,50.92733 0.26753,72.63707 l -10.8688,-7.80881 c 12.25161,-17.06017 12.17361,-39.98114 -0.20065,-56.95255 -15.8536,-21.74334 -46.1282,-26.4883 -67.87153,-10.63472 -21.743329,15.85359 -26.488306,46.1282 -10.634716,67.87153 l -10.818645,7.89242 C 53.427551,937.17431 59.516392,898.28946 87.101303,878.17663 98.30767,870.00581 111.38956,866.17576 124.30606,866.338 z m -1.98982,39.16114 c 12.98095,0 23.51006,10.52912 23.51006,23.51007 0,9.30373 -5.41637,17.34631 -13.25994,21.15236 l 0,76.46623 -21.08548,0 0,-76.7672 c -7.52317,-3.91494 -12.65799,-11.77943 -12.65799,-20.85139 0,-12.98095 10.5124,-23.51007 23.49335,-23.51007 z"
       id="path2995"
       inkscape:connector-curvature="0" />
  </g>
</svg>
