<?xml version="1.0" encoding="UTF-8" standalone="no"?>
<!-- Created with Inkscape (http://www.inkscape.org/) -->

<svg
   width="250"
   height="250"
   id="svg4472"
   version="1.1"
   inkscape:version="1.1.2 (0a00cf5339, 2022-02-04)"
   sodipodi:docname="FZDZ.svg"
   inkscape:export-filename="/home/nhasan/android/workspace/Airports/artwork/HZ.png"
   inkscape:export-xdpi="287.42999"
   inkscape:export-ydpi="287.42999"
   xmlns:inkscape="http://www.inkscape.org/namespaces/inkscape"
   xmlns:sodipodi="http://sodipodi.sourceforge.net/DTD/sodipodi-0.dtd"
   xmlns="http://www.w3.org/2000/svg"
   xmlns:svg="http://www.w3.org/2000/svg"
   xmlns:rdf="http://www.w3.org/1999/02/22-rdf-syntax-ns#"
   xmlns:cc="http://creativecommons.org/ns#"
   xmlns:dc="http://purl.org/dc/elements/1.1/">
  <defs
     id="defs4474" />
  <sodipodi:namedview
     id="base"
     pagecolor="#ffffff"
     bordercolor="#666666"
     borderopacity="1.0"
     inkscape:pageopacity="0.0"
     inkscape:pageshadow="2"
     inkscape:zoom="2.1134085"
     inkscape:cx="107.17284"
     inkscape:cy="150.70442"
     inkscape:document-units="px"
     inkscape:current-layer="layer1"
     showgrid="false"
     inkscape:window-width="2560"
     inkscape:window-height="1379"
     inkscape:window-x="1920"
     inkscape:window-y="0"
     inkscape:window-maximized="1"
     inkscape:pagecheckerboard="0" />
  <metadata
     id="metadata4477">
    <rdf:RDF>
      <cc:Work
         rdf:about="">
        <dc:format>image/svg+xml</dc:format>
        <dc:type
           rdf:resource="http://purl.org/dc/dcmitype/StillImage" />
      </cc:Work>
    </rdf:RDF>
  </metadata>
  <g
     inkscape:label="Layer 1"
     inkscape:groupmode="layer"
     id="layer1">
    <g
       aria-label="S"
       transform="matrix(0,-0.97491416,-1.0257313,0,251.17114,258.58717)"
       id="text5042"
       style="font-size:13.674px;line-height:0%;letter-spacing:0px;word-spacing:0px;stroke-width:1.13949">
      <path
         d="m 211.90295,178.12716 q 0,31.54523 -22.9118,49.14414 -22.91179,17.59892 -61.76222,17.59892 -19.9233,0 -36.858109,-2.9885 -16.934805,-2.98849 -28.224675,-8.30137 v -28.55673 q 11.95398,5.31288 29.552895,9.62959 17.930969,4.31672 36.858109,4.31672 26.56439,0 39.84659,-10.29371 13.61426,-10.2937 13.61426,-27.89262 0,-11.62192 -4.98083,-19.59124 -4.98082,-7.96932 -17.26686,-14.61042 -11.95398,-6.97316 -33.53755,-14.61042 -30.217004,-10.95781 -45.823589,-26.89645 -15.27453,-15.938644 -15.27453,-43.499209 0,-18.927134 9.629595,-32.209334 9.629595,-13.614255 26.564404,-20.9194645 17.26686,-7.3052098 39.51454,-7.3052098 19.59124,0 35.86194,3.6526049 16.27069,3.6526049 29.55289,9.6295944 l -9.29754,25.568235 q -12.28603,-5.31288 -26.89645,-8.965485 -14.27837,-3.652605 -29.88495,-3.652605 -22.24768,0 -33.53755,9.629595 -11.289874,9.29754 -11.289874,24.904124 0,11.95398 4.980824,19.9233 4.98083,7.96932 16.2707,14.278365 11.28987,6.309049 30.54905,13.614259 20.91947,7.63726 35.19783,16.60274 14.61042,8.63343 21.91563,20.91947 7.63727,12.28603 7.63727,30.88111 z"
         style="font-size:332.055px;line-height:1.25"
         id="path2992" />
    </g>
    <rect
       style="opacity:0.98;fill:none;fill-opacity:1;stroke:none;stroke-width:1;stroke-miterlimit:0;stroke-dasharray:none;stroke-opacity:1"
       id="rect2984"
       width="250"
       height="250.71428"
       x="250"
       y="351.64789" />
    <g
       aria-label=","
       id="text13030"
       style="font-size:333.333px;line-height:1.25;font-family:FreeSerif;-inkscape-font-specification:'FreeSerif, Normal'">
      <path
         d="m 181.31575,81.14963 q 0,0 -2.66666,0.666666 -3,0.666666 -6.33333,0.666666 -8.99999,0 -14.33332,-4.333329 -5.33332,-4.666663 -5.33332,-12.666655 0,-8.333325 5.33332,-13.666653 5.66667,-5.333328 14.33332,-5.333328 11.33333,0 18.99998,8.666658 7.66666,8.333325 7.66666,20.999979 0,14.999986 -10.33332,28.999976 -10.33332,13.99998 -26.99997,22.33331 l -3,-6.33333 q 27.33331,-18.66665 27.33331,-35.333298 0,-4.666662 -4.66667,-4.666662 z"
         id="path20766" />
    </g>
    <g
       aria-label=","
       id="text13030-3"
       style="font-size:333.333px;line-height:1.25;font-family:FreeSerif;-inkscape-font-specification:'FreeSerif, Normal'"
       transform="translate(-106.05333,58.112336)">
      <path
         d="m 181.31575,81.14963 q 0,0 -2.66666,0.666666 -3,0.666666 -6.33333,0.666666 -8.99999,0 -14.33332,-4.333329 -5.33332,-4.666663 -5.33332,-12.666655 0,-8.333325 5.33332,-13.666653 5.66667,-5.333328 14.33332,-5.333328 11.33333,0 18.99998,8.666658 7.66666,8.333325 7.66666,20.999979 0,14.999986 -10.33332,28.999976 -10.33332,13.99998 -26.99997,22.33331 l -3,-6.33333 q 27.33331,-18.66665 27.33331,-35.333298 0,-4.666662 -4.66667,-4.666662 z"
         id="path20766-8" />
    </g>
  </g>
</svg>
