<?xml version="1.0" encoding="UTF-8" standalone="no"?>
<!-- Created with Inkscape (http://www.inkscape.org/) -->

<svg
   xmlns:osb="http://www.openswatchbook.org/uri/2009/osb"
   xmlns:dc="http://purl.org/dc/elements/1.1/"
   xmlns:cc="http://creativecommons.org/ns#"
   xmlns:rdf="http://www.w3.org/1999/02/22-rdf-syntax-ns#"
   xmlns:svg="http://www.w3.org/2000/svg"
   xmlns="http://www.w3.org/2000/svg"
   xmlns:sodipodi="http://sodipodi.sourceforge.net/DTD/sodipodi-0.dtd"
   xmlns:inkscape="http://www.inkscape.org/namespaces/inkscape"
   width="320"
   height="320"
   id="svg4472"
   version="1.1"
   inkscape:version="0.48.2 r9819"
   sodipodi:docname="ic_action_search.svg"
   inkscape:export-filename="/home/nhasan/android/workspace/Airports/res/drawable-mdpi/ic_action_search.png"
   inkscape:export-xdpi="9"
   inkscape:export-ydpi="9">
  <defs
     id="defs4474">
    <linearGradient
       id="linearGradient4456"
       osb:paint="solid">
      <stop
         style="stop-color:#000000;stop-opacity:1;"
         offset="0"
         id="stop4458" />
    </linearGradient>
    <marker
       inkscape:stockid="TriangleOutS"
       orient="auto"
       refY="0"
       refX="0"
       id="TriangleOutS"
       style="overflow:visible">
      <path
         id="path3905"
         d="m 5.77,0 -8.65,5 0,-10 8.65,5 z"
         style="fill-rule:evenodd;stroke:#000000;stroke-width:1pt;marker-start:none"
         transform="scale(0.2,0.2)"
         inkscape:connector-curvature="0" />
    </marker>
    <marker
       inkscape:stockid="TriangleInS"
       orient="auto"
       refY="0"
       refX="0"
       id="TriangleInS"
       style="overflow:visible">
      <path
         id="path3896"
         d="m 5.77,0 -8.65,5 0,-10 8.65,5 z"
         style="fill-rule:evenodd;stroke:#000000;stroke-width:1pt;marker-start:none"
         transform="scale(-0.2,-0.2)"
         inkscape:connector-curvature="0" />
    </marker>
    <clipPath
       clipPathUnits="userSpaceOnUse"
       id="clipPath18">
      <path
         inkscape:connector-curvature="0"
         d="m 0,2221 1709,0 L 1709,0 0,0 0,2221 z"
         id="path20" />
    </clipPath>
  </defs>
  <sodipodi:namedview
     id="base"
     pagecolor="#ffffff"
     bordercolor="#666666"
     borderopacity="1.0"
     inkscape:pageopacity="0"
     inkscape:pageshadow="2"
     inkscape:zoom="1.8567357"
     inkscape:cx="-45.956062"
     inkscape:cy="159.20351"
     inkscape:document-units="px"
     inkscape:current-layer="layer1"
     showgrid="false"
     inkscape:window-width="1600"
     inkscape:window-height="846"
     inkscape:window-x="0"
     inkscape:window-y="-3"
     inkscape:window-maximized="1"
     fit-margin-top="0"
     fit-margin-left="0"
     fit-margin-right="0"
     fit-margin-bottom="0"
     inkscape:showpageshadow="false" />
  <metadata
     id="metadata4477">
    <rdf:RDF>
      <cc:Work
         rdf:about="">
        <dc:format>image/svg+xml</dc:format>
        <dc:type
           rdf:resource="http://purl.org/dc/dcmitype/StillImage" />
        <dc:title></dc:title>
      </cc:Work>
    </rdf:RDF>
  </metadata>
  <g
     inkscape:label="Layer 1"
     inkscape:groupmode="layer"
     id="layer1"
     transform="translate(-250.00001,-282.36217)">
    <g
       transform="matrix(3.7038507,0,0,-3.7039421,-321.23964,7599.3599)"
       id="g14"
       style="stroke:none;stroke-width:0.26998593999999998;stroke-miterlimit:4;stroke-opacity:1;stroke-dasharray:none;fill:#ffffff;fill-opacity:0.80000001"
       inkscape:export-filename="/home/nhasan/android/workspace/Airports/res/drawable-xhdpi/g14.png"
       inkscape:export-xdpi="18"
       inkscape:export-ydpi="18">
      <g
         id="g16"
         clip-path="url(#clipPath18)"
         style="stroke:none;stroke-width:0.26998593999999998;stroke-miterlimit:4;stroke-opacity:1;stroke-dasharray:none;fill:#ffffff;fill-opacity:0.80000001">
        <g
           id="g22"
           transform="translate(175.3364,1928.6187)"
           style="stroke:none;stroke-width:0.26998593999999998;stroke-miterlimit:4;stroke-opacity:1;stroke-dasharray:none;fill:#ffffff;fill-opacity:0.80000001">
          <path
             inkscape:connector-curvature="0"
             d="m 0,0 c -7.104,7.109 -7.104,18.632 0,25.735 7.109,7.11 18.622,7.104 25.735,0 C 32.839,18.632 32.839,7.113 25.735,0 18.622,-7.104 7.104,-7.104 0,0 M 53.585,-18.532 41.421,-6.365 c -1.07,1.069 -3.008,0.968 -4.95,-0.045 l -5.308,5.304 c 6.914,9.034 6.262,22.002 -2.003,30.269 -8.999,8.995 -23.587,8.995 -32.587,0 -8.995,-9.002 -8.995,-23.59 0,-32.588 8.268,-8.263 21.237,-8.916 30.27,-2 l 5.306,-5.304 c -1.011,-1.946 -1.115,-3.882 -0.046,-4.954 L 44.269,-27.85 c 1.537,-1.536 4.874,-0.691 7.441,1.884 2.57,2.567 3.414,5.899 1.875,7.434"
             style="fill:#ffffff;fill-opacity:0.80000001;fill-rule:nonzero;stroke:none;stroke-width:0.26998593999999998;stroke-miterlimit:4;stroke-opacity:1;stroke-dasharray:none"
             id="path24" />
        </g>
      </g>
    </g>
  </g>
</svg>
