<?xml version="1.0" encoding="UTF-8" standalone="no"?>
<!-- Created with Inkscape (http://www.inkscape.org/) -->

<svg
   xmlns:dc="http://purl.org/dc/elements/1.1/"
   xmlns:cc="http://creativecommons.org/ns#"
   xmlns:rdf="http://www.w3.org/1999/02/22-rdf-syntax-ns#"
   xmlns:svg="http://www.w3.org/2000/svg"
   xmlns="http://www.w3.org/2000/svg"
   xmlns:xlink="http://www.w3.org/1999/xlink"
   xmlns:sodipodi="http://sodipodi.sourceforge.net/DTD/sodipodi-0.dtd"
   xmlns:inkscape="http://www.inkscape.org/namespaces/inkscape"
   width="275"
   height="275"
   id="svg2"
   version="1.1"
   inkscape:version="0.48.3.1 r9886"
   sodipodi:docname="notepad.svg"
   inkscape:export-filename="/home/nhasan/Downloads/art/notepad.png"
   inkscape:export-xdpi="320.07272"
   inkscape:export-ydpi="320.07272">
  <defs
     id="defs4">
    <filter
       id="filter6773"
       inkscape:collect="always"
       color-interpolation-filters="sRGB">
      <feGaussianBlur
         id="feGaussianBlur6775"
         stdDeviation="2.6663444"
         inkscape:collect="always" />
    </filter>
    <linearGradient
       id="linearGradient3867">
      <stop
         id="stop3869"
         offset="0"
         style="stop-color:#b3b3b3;stop-opacity:1;" />
      <stop
         style="stop-color:#fffcfc;stop-opacity:1;"
         offset="0.5"
         id="stop3875" />
      <stop
         id="stop3871"
         offset="1"
         style="stop-color:#bbbbbb;stop-opacity:1;" />
    </linearGradient>
    <linearGradient
       id="linearGradient4124">
      <stop
         id="stop4126"
         offset="0"
         style="stop-color:#d2eaea;stop-opacity:1;" />
      <stop
         id="stop4128"
         offset="1"
         style="stop-color:#bfd8d8;stop-opacity:1;" />
    </linearGradient>
    <linearGradient
       id="linearGradient6591">
      <stop
         id="stop6593"
         offset="0"
         style="stop-color:#ffffff;stop-opacity:1;" />
      <stop
         id="stop6595"
         offset="1"
         style="stop-color:#ffffff;stop-opacity:0;" />
    </linearGradient>
    <linearGradient
       inkscape:collect="always"
       xlink:href="#linearGradient3867"
       id="linearGradient3229"
       gradientUnits="userSpaceOnUse"
       gradientTransform="translate(9.6159543,78.4799)"
       x1="202.00932"
       y1="256.29327"
       x2="215.77963"
       y2="256.29327" />
    <linearGradient
       inkscape:collect="always"
       xlink:href="#linearGradient3867"
       id="linearGradient3231"
       gradientUnits="userSpaceOnUse"
       gradientTransform="translate(226.40167,78.479887)"
       x1="202.00932"
       y1="256.29327"
       x2="215.77963"
       y2="256.29327" />
    <linearGradient
       inkscape:collect="always"
       xlink:href="#linearGradient3867"
       id="linearGradient3233"
       gradientUnits="userSpaceOnUse"
       gradientTransform="translate(202.31438,78.479883)"
       x1="202.00932"
       y1="256.29327"
       x2="215.77963"
       y2="256.29327" />
    <linearGradient
       inkscape:collect="always"
       xlink:href="#linearGradient3867"
       id="linearGradient3235"
       gradientUnits="userSpaceOnUse"
       gradientTransform="translate(178.22709,78.479887)"
       x1="202.00932"
       y1="256.29327"
       x2="215.77963"
       y2="256.29327" />
    <linearGradient
       inkscape:collect="always"
       xlink:href="#linearGradient3867"
       id="linearGradient3237"
       gradientUnits="userSpaceOnUse"
       gradientTransform="translate(154.13975,78.479891)"
       x1="202.00932"
       y1="256.29327"
       x2="215.77963"
       y2="256.29327" />
    <linearGradient
       inkscape:collect="always"
       xlink:href="#linearGradient3867"
       id="linearGradient3239"
       gradientUnits="userSpaceOnUse"
       gradientTransform="translate(130.05247,78.479891)"
       x1="202.00932"
       y1="256.29327"
       x2="215.77963"
       y2="256.29327" />
    <linearGradient
       inkscape:collect="always"
       xlink:href="#linearGradient3867"
       id="linearGradient3241"
       gradientUnits="userSpaceOnUse"
       gradientTransform="translate(105.96518,78.479879)"
       x1="202.00932"
       y1="256.29327"
       x2="215.77963"
       y2="256.29327" />
    <linearGradient
       inkscape:collect="always"
       xlink:href="#linearGradient3867"
       id="linearGradient3243"
       gradientUnits="userSpaceOnUse"
       gradientTransform="translate(81.877856,78.479887)"
       x1="202.00932"
       y1="256.29327"
       x2="215.77963"
       y2="256.29327" />
    <linearGradient
       inkscape:collect="always"
       xlink:href="#linearGradient3867"
       id="linearGradient3245"
       gradientUnits="userSpaceOnUse"
       gradientTransform="translate(57.790567,78.479883)"
       x1="202.00932"
       y1="256.29327"
       x2="215.77963"
       y2="256.29327" />
    <linearGradient
       inkscape:collect="always"
       xlink:href="#linearGradient3867"
       id="linearGradient3247"
       gradientUnits="userSpaceOnUse"
       gradientTransform="translate(33.703254,78.479887)"
       x1="202.00932"
       y1="256.29327"
       x2="215.77963"
       y2="256.29327" />
    <linearGradient
       inkscape:collect="always"
       xlink:href="#linearGradient3867"
       id="linearGradient5283"
       gradientUnits="userSpaceOnUse"
       gradientTransform="translate(9.6159543,78.4799)"
       x1="202.00932"
       y1="256.29327"
       x2="215.77963"
       y2="256.29327" />
    <linearGradient
       inkscape:collect="always"
       xlink:href="#linearGradient3867"
       id="linearGradient5285"
       gradientUnits="userSpaceOnUse"
       gradientTransform="translate(226.40167,78.479887)"
       x1="202.00932"
       y1="256.29327"
       x2="215.77963"
       y2="256.29327" />
    <linearGradient
       inkscape:collect="always"
       xlink:href="#linearGradient3867"
       id="linearGradient5287"
       gradientUnits="userSpaceOnUse"
       gradientTransform="translate(202.31438,78.479883)"
       x1="202.00932"
       y1="256.29327"
       x2="215.77963"
       y2="256.29327" />
    <linearGradient
       inkscape:collect="always"
       xlink:href="#linearGradient3867"
       id="linearGradient5289"
       gradientUnits="userSpaceOnUse"
       gradientTransform="translate(178.22709,78.479887)"
       x1="202.00932"
       y1="256.29327"
       x2="215.77963"
       y2="256.29327" />
    <linearGradient
       inkscape:collect="always"
       xlink:href="#linearGradient3867"
       id="linearGradient5291"
       gradientUnits="userSpaceOnUse"
       gradientTransform="translate(154.13975,78.479891)"
       x1="202.00932"
       y1="256.29327"
       x2="215.77963"
       y2="256.29327" />
    <linearGradient
       inkscape:collect="always"
       xlink:href="#linearGradient3867"
       id="linearGradient5293"
       gradientUnits="userSpaceOnUse"
       gradientTransform="translate(130.05247,78.479891)"
       x1="202.00932"
       y1="256.29327"
       x2="215.77963"
       y2="256.29327" />
    <linearGradient
       inkscape:collect="always"
       xlink:href="#linearGradient3867"
       id="linearGradient5295"
       gradientUnits="userSpaceOnUse"
       gradientTransform="translate(105.96518,78.479879)"
       x1="202.00932"
       y1="256.29327"
       x2="215.77963"
       y2="256.29327" />
    <linearGradient
       inkscape:collect="always"
       xlink:href="#linearGradient3867"
       id="linearGradient5297"
       gradientUnits="userSpaceOnUse"
       gradientTransform="translate(81.877856,78.479887)"
       x1="202.00932"
       y1="256.29327"
       x2="215.77963"
       y2="256.29327" />
    <linearGradient
       inkscape:collect="always"
       xlink:href="#linearGradient3867"
       id="linearGradient5299"
       gradientUnits="userSpaceOnUse"
       gradientTransform="translate(57.790567,78.479883)"
       x1="202.00932"
       y1="256.29327"
       x2="215.77963"
       y2="256.29327" />
    <linearGradient
       inkscape:collect="always"
       xlink:href="#linearGradient3867"
       id="linearGradient5301"
       gradientUnits="userSpaceOnUse"
       gradientTransform="translate(33.703254,78.479887)"
       x1="202.00932"
       y1="256.29327"
       x2="215.77963"
       y2="256.29327" />
  </defs>
  <sodipodi:namedview
     id="base"
     pagecolor="#ffffff"
     bordercolor="#666666"
     borderopacity="1.0"
     inkscape:pageopacity="0.0"
     inkscape:pageshadow="2"
     inkscape:zoom="1.9148658"
     inkscape:cx="55.422139"
     inkscape:cy="136.32171"
     inkscape:document-units="px"
     inkscape:current-layer="layer1"
     showgrid="false"
     fit-margin-top="0"
     fit-margin-left="0"
     fit-margin-right="0"
     fit-margin-bottom="0"
     inkscape:window-width="1600"
     inkscape:window-height="853"
     inkscape:window-x="0"
     inkscape:window-y="-3"
     inkscape:window-maximized="1" />
  <metadata
     id="metadata7">
    <rdf:RDF>
      <cc:Work
         rdf:about="">
        <dc:format>image/svg+xml</dc:format>
        <dc:type
           rdf:resource="http://purl.org/dc/dcmitype/StillImage" />
        <dc:title></dc:title>
      </cc:Work>
    </rdf:RDF>
  </metadata>
  <g
     inkscape:label="Layer 1"
     inkscape:groupmode="layer"
     id="layer1"
     transform="translate(-14.839303,-341.16238)">
    <g
       id="g5598">
      <flowRoot
         transform="translate(-177.57397,19.544405)"
         style="font-size:40px;font-style:normal;font-variant:normal;font-weight:normal;font-stretch:normal;line-height:125%;letter-spacing:0px;word-spacing:0px;fill:#000000;fill-opacity:1;stroke:none;font-family:Courier 10 Pitch;-inkscape-font-specification:Courier 10 Pitch"
         id="flowRoot6694"
         xml:space="preserve"><flowRegion
           id="flowRegion6696"><rect
             style="font-style:normal;font-variant:normal;font-weight:normal;font-stretch:normal;font-family:Courier 10 Pitch;-inkscape-font-specification:Courier 10 Pitch"
             y="360.93362"
             x="208.57143"
             height="218.57143"
             width="238.57143"
             id="rect6698" /></flowRegion><flowPara
           id="flowPara6700" /></flowRoot>      <g
         transform="matrix(0.87529919,0,0,0.82918234,-135.63636,103.19017)"
         style="opacity:0.31899641;fill:#000000;filter:url(#filter6773)"
         id="g6733">
        <g
           style="fill:#000000"
           id="g6735">
          <path
             inkscape:connector-curvature="0"
             id="path6737"
             d="m 211.58098,334.00832 c -4.74857,0 -8.5625,3.81393 -8.5625,8.5625 l 0,238.5625 c 0,4.74857 3.81393,8.59375 8.5625,8.59375 l 238.5625,0 c 4.74857,0 8.5625,-3.84518 8.5625,-8.59375 l 0,-238.5625 c 0,-4.74857 -3.81393,-8.5625 -8.5625,-8.5625 l -238.5625,0 z m 11.21875,10.28125 c 3.71701,0 6.71875,3.03299 6.71875,6.75 0,3.71701 -3.00174,6.71875 -6.71875,6.71875 -3.71701,0 -6.71875,-3.00174 -6.71875,-6.71875 0,-3.71701 3.00174,-6.75 6.71875,-6.75 z m 24.25,0 c 3.71701,0 6.71875,3.03299 6.71875,6.75 0,3.71701 -3.00174,6.71875 -6.71875,6.71875 -3.71701,0 -6.75,-3.00174 -6.75,-6.71875 0,-3.71701 3.03299,-6.75 6.75,-6.75 z m 23.71875,0 c 3.71701,0 6.75,3.03299 6.75,6.75 0,3.71701 -3.03299,6.71875 -6.75,6.71875 -3.71701,0 -6.71875,-3.00174 -6.71875,-6.71875 0,-3.71701 3.00174,-6.75 6.71875,-6.75 z m 23.78125,0 c 3.71701,0 6.71875,3.03299 6.71875,6.75 0,3.71701 -3.00174,6.71875 -6.71875,6.71875 -3.71701,0 -6.71875,-3.00174 -6.71875,-6.71875 0,-3.71701 3.00174,-6.75 6.71875,-6.75 z m 23.90625,0 c 3.71701,0 6.75,3.03299 6.75,6.75 0,3.71701 -3.03299,6.71875 -6.75,6.71875 -3.71701,0 -6.71875,-3.00174 -6.71875,-6.71875 0,-3.71701 3.00174,-6.75 6.71875,-6.75 z m 24.0625,0 c 3.71701,0 6.71875,3.03299 6.71875,6.75 0,3.71701 -3.00174,6.71875 -6.71875,6.71875 -3.71701,0 -6.75,-3.00174 -6.75,-6.71875 0,-3.71701 3.03299,-6.75 6.75,-6.75 z m 24.1875,0 c 3.71701,0 6.75,3.03299 6.75,6.75 0,3.71701 -3.03299,6.71875 -6.75,6.71875 -3.71701,0 -6.71875,-3.00174 -6.71875,-6.71875 0,-3.71701 3.00174,-6.75 6.71875,-6.75 z m 24.28125,0 c 3.71701,0 6.75,3.03299 6.75,6.75 0,3.71701 -3.03299,6.71875 -6.75,6.71875 -3.71701,0 -6.71875,-3.00174 -6.71875,-6.71875 0,-3.71701 3.00174,-6.75 6.71875,-6.75 z m 23.6875,0 c 3.71701,0 6.71875,3.03299 6.71875,6.75 0,3.71701 -3.00174,6.71875 -6.71875,6.71875 -3.71701,0 -6.75,-3.00174 -6.75,-6.71875 0,-3.71701 3.03299,-6.75 6.75,-6.75 z m 23.78125,0 c 3.71701,0 6.75,3.03299 6.75,6.75 0,3.71701 -3.03299,6.71875 -6.75,6.71875 -3.71701,0 -6.71875,-3.00174 -6.71875,-6.71875 0,-3.71701 3.00174,-6.75 6.71875,-6.75 z"
             style="fill:#000000;fill-opacity:1;stroke:#000000;stroke-width:1.17380691" />
          <path
             style="fill:#000000;fill-opacity:1;stroke:#b3b3b3;stroke-width:1.17380691"
             d="m 210.15241,333.29403 c -4.74857,0 -8.5625,3.81393 -8.5625,8.5625 l 0,238.5625 c 0,4.74857 3.81393,8.59375 8.5625,8.59375 l 238.5625,0 c 4.74857,0 8.5625,-3.84518 8.5625,-8.59375 l 0,-238.5625 c 0,-4.74857 -3.81393,-8.5625 -8.5625,-8.5625 l -238.5625,0 z m 11.21875,10.28125 c 3.71701,0 6.71875,3.03299 6.71875,6.75 0,3.71701 -3.00174,6.71875 -6.71875,6.71875 -3.71701,0 -6.71875,-3.00174 -6.71875,-6.71875 0,-3.71701 3.00174,-6.75 6.71875,-6.75 z m 24.25,0 c 3.71701,0 6.71875,3.03299 6.71875,6.75 0,3.71701 -3.00174,6.71875 -6.71875,6.71875 -3.71701,0 -6.75,-3.00174 -6.75,-6.71875 0,-3.71701 3.03299,-6.75 6.75,-6.75 z m 23.71875,0 c 3.71701,0 6.75,3.03299 6.75,6.75 0,3.71701 -3.03299,6.71875 -6.75,6.71875 -3.71701,0 -6.71875,-3.00174 -6.71875,-6.71875 0,-3.71701 3.00174,-6.75 6.71875,-6.75 z m 23.78125,0 c 3.71701,0 6.71875,3.03299 6.71875,6.75 0,3.71701 -3.00174,6.71875 -6.71875,6.71875 -3.71701,0 -6.71875,-3.00174 -6.71875,-6.71875 0,-3.71701 3.00174,-6.75 6.71875,-6.75 z m 23.90625,0 c 3.71701,0 6.75,3.03299 6.75,6.75 0,3.71701 -3.03299,6.71875 -6.75,6.71875 -3.71701,0 -6.71875,-3.00174 -6.71875,-6.71875 0,-3.71701 3.00174,-6.75 6.71875,-6.75 z m 24.0625,0 c 3.71701,0 6.71875,3.03299 6.71875,6.75 0,3.71701 -3.00174,6.71875 -6.71875,6.71875 -3.71701,0 -6.75,-3.00174 -6.75,-6.71875 0,-3.71701 3.03299,-6.75 6.75,-6.75 z m 24.1875,0 c 3.71701,0 6.75,3.03299 6.75,6.75 0,3.71701 -3.03299,6.71875 -6.75,6.71875 -3.71701,0 -6.71875,-3.00174 -6.71875,-6.71875 0,-3.71701 3.00174,-6.75 6.71875,-6.75 z m 24.28125,0 c 3.71701,0 6.75,3.03299 6.75,6.75 0,3.71701 -3.03299,6.71875 -6.75,6.71875 -3.71701,0 -6.71875,-3.00174 -6.71875,-6.71875 0,-3.71701 3.00174,-6.75 6.71875,-6.75 z m 23.6875,0 c 3.71701,0 6.71875,3.03299 6.71875,6.75 0,3.71701 -3.00174,6.71875 -6.71875,6.71875 -3.71701,0 -6.75,-3.00174 -6.75,-6.71875 0,-3.71701 3.03299,-6.75 6.75,-6.75 z m 23.78125,0 c 3.71701,0 6.75,3.03299 6.75,6.75 0,3.71701 -3.03299,6.71875 -6.75,6.71875 -3.71701,0 -6.71875,-3.00174 -6.71875,-6.71875 0,-3.71701 3.00174,-6.75 6.71875,-6.75 z"
             id="path6739"
             inkscape:connector-curvature="0" />
          <path
             inkscape:connector-curvature="0"
             id="path6741"
             d="m 209.43812,331.86546 c -4.74857,0 -8.5625,3.81393 -8.5625,8.5625 l 0,238.5625 c 0,4.74857 3.81393,8.59375 8.5625,8.59375 l 238.5625,0 c 4.74857,0 8.5625,-3.84518 8.5625,-8.59375 l 0,-238.5625 c 0,-4.74857 -3.81393,-8.5625 -8.5625,-8.5625 l -238.5625,0 z m 11.21875,10.28125 c 3.71701,0 6.71875,3.03299 6.71875,6.75 0,3.71701 -3.00174,6.71875 -6.71875,6.71875 -3.71701,0 -6.71875,-3.00174 -6.71875,-6.71875 0,-3.71701 3.00174,-6.75 6.71875,-6.75 z m 24.25,0 c 3.71701,0 6.71875,3.03299 6.71875,6.75 0,3.71701 -3.00174,6.71875 -6.71875,6.71875 -3.71701,0 -6.75,-3.00174 -6.75,-6.71875 0,-3.71701 3.03299,-6.75 6.75,-6.75 z m 23.71875,0 c 3.71701,0 6.75,3.03299 6.75,6.75 0,3.71701 -3.03299,6.71875 -6.75,6.71875 -3.71701,0 -6.71875,-3.00174 -6.71875,-6.71875 0,-3.71701 3.00174,-6.75 6.71875,-6.75 z m 23.78125,0 c 3.71701,0 6.71875,3.03299 6.71875,6.75 0,3.71701 -3.00174,6.71875 -6.71875,6.71875 -3.71701,0 -6.71875,-3.00174 -6.71875,-6.71875 0,-3.71701 3.00174,-6.75 6.71875,-6.75 z m 23.90625,0 c 3.71701,0 6.75,3.03299 6.75,6.75 0,3.71701 -3.03299,6.71875 -6.75,6.71875 -3.71701,0 -6.71875,-3.00174 -6.71875,-6.71875 0,-3.71701 3.00174,-6.75 6.71875,-6.75 z m 24.0625,0 c 3.71701,0 6.71875,3.03299 6.71875,6.75 0,3.71701 -3.00174,6.71875 -6.71875,6.71875 -3.71701,0 -6.75,-3.00174 -6.75,-6.71875 0,-3.71701 3.03299,-6.75 6.75,-6.75 z m 24.1875,0 c 3.71701,0 6.75,3.03299 6.75,6.75 0,3.71701 -3.03299,6.71875 -6.75,6.71875 -3.71701,0 -6.71875,-3.00174 -6.71875,-6.71875 0,-3.71701 3.00174,-6.75 6.71875,-6.75 z m 24.28125,0 c 3.71701,0 6.75,3.03299 6.75,6.75 0,3.71701 -3.03299,6.71875 -6.75,6.71875 -3.71701,0 -6.71875,-3.00174 -6.71875,-6.71875 0,-3.71701 3.00174,-6.75 6.71875,-6.75 z m 23.6875,0 c 3.71701,0 6.71875,3.03299 6.71875,6.75 0,3.71701 -3.00174,6.71875 -6.71875,6.71875 -3.71701,0 -6.75,-3.00174 -6.75,-6.71875 0,-3.71701 3.03299,-6.75 6.75,-6.75 z m 23.78125,0 c 3.71701,0 6.75,3.03299 6.75,6.75 0,3.71701 -3.03299,6.71875 -6.75,6.71875 -3.71701,0 -6.71875,-3.00174 -6.71875,-6.71875 0,-3.71701 3.00174,-6.75 6.71875,-6.75 z"
             style="fill:#000000;fill-opacity:1;stroke:#999999;stroke-width:1.17380691" />
          <path
             style="fill:#000000;fill-opacity:1;stroke:#000000;stroke-width:1.17380691;stroke-miterlimit:4;stroke-dasharray:none"
             d="m 207.86161,331.65625 c -4.74857,0 -8.5625,3.81393 -8.5625,8.5625 l 0,238.5625 c 0,4.74857 3.81393,8.59375 8.5625,8.59375 l 238.5625,0 c 4.74857,0 8.5625,-3.84518 8.5625,-8.59375 l 0,-238.5625 c 0,-4.74857 -3.81393,-8.5625 -8.5625,-8.5625 l -238.5625,0 z m 11.21875,10.28125 c 3.71701,0 6.71875,3.03299 6.71875,6.75 0,3.71701 -3.00174,6.71875 -6.71875,6.71875 -3.71701,0 -6.71875,-3.00174 -6.71875,-6.71875 0,-3.71701 3.00174,-6.75 6.71875,-6.75 z m 24.25,0 c 3.71701,0 6.71875,3.03299 6.71875,6.75 0,3.71701 -3.00174,6.71875 -6.71875,6.71875 -3.71701,0 -6.75,-3.00174 -6.75,-6.71875 0,-3.71701 3.03299,-6.75 6.75,-6.75 z m 23.71875,0 c 3.71701,0 6.75,3.03299 6.75,6.75 0,3.71701 -3.03299,6.71875 -6.75,6.71875 -3.71701,0 -6.71875,-3.00174 -6.71875,-6.71875 0,-3.71701 3.00174,-6.75 6.71875,-6.75 z m 23.78125,0 c 3.71701,0 6.71875,3.03299 6.71875,6.75 0,3.71701 -3.00174,6.71875 -6.71875,6.71875 -3.71701,0 -6.71875,-3.00174 -6.71875,-6.71875 0,-3.71701 3.00174,-6.75 6.71875,-6.75 z m 23.90625,0 c 3.71701,0 6.75,3.03299 6.75,6.75 0,3.71701 -3.03299,6.71875 -6.75,6.71875 -3.71701,0 -6.71875,-3.00174 -6.71875,-6.71875 0,-3.71701 3.00174,-6.75 6.71875,-6.75 z m 24.0625,0 c 3.71701,0 6.71875,3.03299 6.71875,6.75 0,3.71701 -3.00174,6.71875 -6.71875,6.71875 -3.71701,0 -6.75,-3.00174 -6.75,-6.71875 0,-3.71701 3.03299,-6.75 6.75,-6.75 z m 24.1875,0 c 3.71701,0 6.75,3.03299 6.75,6.75 0,3.71701 -3.03299,6.71875 -6.75,6.71875 -3.71701,0 -6.71875,-3.00174 -6.71875,-6.71875 0,-3.71701 3.00174,-6.75 6.71875,-6.75 z m 24.28125,0 c 3.71701,0 6.75,3.03299 6.75,6.75 0,3.71701 -3.03299,6.71875 -6.75,6.71875 -3.71701,0 -6.71875,-3.00174 -6.71875,-6.71875 0,-3.71701 3.00174,-6.75 6.71875,-6.75 z m 23.6875,0 c 3.71701,0 6.71875,3.03299 6.71875,6.75 0,3.71701 -3.00174,6.71875 -6.71875,6.71875 -3.71701,0 -6.75,-3.00174 -6.75,-6.71875 0,-3.71701 3.03299,-6.75 6.75,-6.75 z m 23.78125,0 c 3.71701,0 6.75,3.03299 6.75,6.75 0,3.71701 -3.03299,6.71875 -6.75,6.71875 -3.71701,0 -6.71875,-3.00174 -6.71875,-6.71875 0,-3.71701 3.00174,-6.75 6.71875,-6.75 z"
             id="path6743"
             inkscape:connector-curvature="0" />
          <g
             style="fill:#000000"
             id="g6745"
             transform="translate(0.14793342,-0.44380032)">
            <rect
               ry="8.5714283"
               rx="8.5714283"
               y="316.30887"
               x="212.08188"
               height="36.92857"
               width="12.857142"
               id="rect6747"
               style="fill:#000000;fill-opacity:1;stroke:#000000;stroke-width:1.07187986;stroke-linecap:round;stroke-linejoin:round;stroke-miterlimit:4;stroke-opacity:1;stroke-dasharray:none" />
            <rect
               style="fill:#000000;fill-opacity:1;stroke:#000000;stroke-width:1.07187986;stroke-linecap:round;stroke-linejoin:round;stroke-miterlimit:4;stroke-opacity:1;stroke-dasharray:none"
               id="rect6749"
               width="12.857142"
               height="36.92857"
               x="428.86758"
               y="316.30887"
               rx="8.5714283"
               ry="8.5714283" />
            <rect
               ry="8.5714283"
               rx="8.5714283"
               y="316.30887"
               x="404.7803"
               height="36.92857"
               width="12.857142"
               id="rect6751"
               style="fill:#000000;fill-opacity:1;stroke:#000000;stroke-width:1.07187986;stroke-linecap:round;stroke-linejoin:round;stroke-miterlimit:4;stroke-opacity:1;stroke-dasharray:none" />
            <rect
               style="fill:#000000;fill-opacity:1;stroke:#000000;stroke-width:1.07187986;stroke-linecap:round;stroke-linejoin:round;stroke-miterlimit:4;stroke-opacity:1;stroke-dasharray:none"
               id="rect6753"
               width="12.857142"
               height="36.92857"
               x="380.69299"
               y="316.30887"
               rx="8.5714283"
               ry="8.5714283" />
            <rect
               ry="8.5714283"
               rx="8.5714283"
               y="316.30887"
               x="356.60568"
               height="36.92857"
               width="12.857142"
               id="rect6755"
               style="fill:#000000;fill-opacity:1;stroke:#000000;stroke-width:1.07187986;stroke-linecap:round;stroke-linejoin:round;stroke-miterlimit:4;stroke-opacity:1;stroke-dasharray:none" />
            <rect
               style="fill:#000000;fill-opacity:1;stroke:#000000;stroke-width:1.07187986;stroke-linecap:round;stroke-linejoin:round;stroke-miterlimit:4;stroke-opacity:1;stroke-dasharray:none"
               id="rect6757"
               width="12.857142"
               height="36.92857"
               x="332.5184"
               y="316.30887"
               rx="8.5714283"
               ry="8.5714283" />
            <rect
               ry="8.5714283"
               rx="8.5714283"
               y="316.30887"
               x="308.43109"
               height="36.92857"
               width="12.857142"
               id="rect6759"
               style="fill:#000000;fill-opacity:1;stroke:#000000;stroke-width:1.07187986;stroke-linecap:round;stroke-linejoin:round;stroke-miterlimit:4;stroke-opacity:1;stroke-dasharray:none" />
            <rect
               style="fill:#000000;fill-opacity:1;stroke:#000000;stroke-width:1.07187986;stroke-linecap:round;stroke-linejoin:round;stroke-miterlimit:4;stroke-opacity:1;stroke-dasharray:none"
               id="rect6761"
               width="12.857142"
               height="36.92857"
               x="284.34378"
               y="316.30887"
               rx="8.5714283"
               ry="8.5714283" />
            <rect
               ry="8.5714283"
               rx="8.5714283"
               y="316.30887"
               x="260.2565"
               height="36.92857"
               width="12.857142"
               id="rect6763"
               style="fill:#000000;fill-opacity:1;stroke:#000000;stroke-width:1.07187986;stroke-linecap:round;stroke-linejoin:round;stroke-miterlimit:4;stroke-opacity:1;stroke-dasharray:none" />
            <rect
               style="fill:#000000;fill-opacity:1;stroke:#000000;stroke-width:1.07187986;stroke-linecap:round;stroke-linejoin:round;stroke-miterlimit:4;stroke-opacity:1;stroke-dasharray:none"
               id="rect6765"
               width="12.857142"
               height="36.92857"
               x="236.16917"
               y="316.30887"
               rx="8.5714283"
               ry="8.5714283" />
          </g>
          <path
             inkscape:connector-curvature="0"
             style="opacity:0.25089608;fill:#000000;fill-opacity:1;stroke:none"
             d="m 450.03125,332.4375 c 2.3213,7.14541 3.53125,14.51727 3.53125,22.0625 0,64.30173 -88.24601,116.4375 -197.125,116.4375 -19.86616,0 -39.04241,-1.74063 -57.125,-4.96875 l 0,112.8125 c 0,4.74857 3.81393,8.59375 8.5625,8.59375 l 238.5625,0 c 4.74857,0 8.5625,-3.84518 8.5625,-8.59375 l 0,-238.5625 c 0,-3.45261 -2.043,-6.42356 -4.96875,-7.78125 z"
             id="path6767" />
        </g>
      </g>
      <path
         style="fill:#cccccc;fill-opacity:1;stroke:#445016;stroke-width:0.99999988"
         d="m 46.907745,377.63117 c -4.156419,0 -7.494749,3.16245 -7.494749,7.09988 l 0,197.81181 c 0,3.93743 3.33833,7.12578 7.494749,7.12578 l 208.813565,0 c 4.15642,0 7.49475,-3.18835 7.49475,-7.12578 l 0,-197.81181 c 0,-3.93743 -3.33833,-7.09988 -7.49475,-7.09988 l -208.813565,0 z m 9.819763,8.52503 c 3.253496,0 5.880916,2.5149 5.880916,5.59698 0,3.08208 -2.62742,5.57107 -5.880916,5.57107 -3.253496,0 -5.880917,-2.48899 -5.880917,-5.57107 0,-3.08208 2.627421,-5.59698 5.880917,-5.59698 z m 21.226005,0 c 3.253496,0 5.880917,2.5149 5.880917,5.59698 0,3.08208 -2.627421,5.57107 -5.880917,5.57107 -3.253496,0 -5.908269,-2.48899 -5.908269,-5.57107 0,-3.08208 2.654773,-5.59698 5.908269,-5.59698 z m 20.761003,0 c 3.253494,0 5.908264,2.5149 5.908264,5.59698 0,3.08208 -2.65477,5.57107 -5.908264,5.57107 -3.253496,0 -5.880917,-2.48899 -5.880917,-5.57107 0,-3.08208 2.627421,-5.59698 5.880917,-5.59698 z m 20.815704,0 c 3.2535,0 5.88092,2.5149 5.88092,5.59698 0,3.08208 -2.62742,5.57107 -5.88092,5.57107 -3.25349,0 -5.88091,-2.48899 -5.88091,-5.57107 0,-3.08208 2.62742,-5.59698 5.88091,-5.59698 z m 20.92512,0 c 3.2535,0 5.90827,2.5149 5.90827,5.59698 0,3.08208 -2.65477,5.57107 -5.90827,5.57107 -3.25349,0 -5.88091,-2.48899 -5.88091,-5.57107 0,-3.08208 2.62742,-5.59698 5.88091,-5.59698 z m 21.06189,0 c 3.2535,0 5.88092,2.5149 5.88092,5.59698 0,3.08208 -2.62742,5.57107 -5.88092,5.57107 -3.2535,0 -5.90827,-2.48899 -5.90827,-5.57107 0,-3.08208 2.65477,-5.59698 5.90827,-5.59698 z m 21.1713,0 c 3.2535,0 5.90827,2.5149 5.90827,5.59698 0,3.08208 -2.65477,5.57107 -5.90827,5.57107 -3.2535,0 -5.88092,-2.48899 -5.88092,-5.57107 0,-3.08208 2.62742,-5.59698 5.88092,-5.59698 z m 21.25336,0 c 3.25349,0 5.90827,2.5149 5.90827,5.59698 0,3.08208 -2.65478,5.57107 -5.90827,5.57107 -3.2535,0 -5.88092,-2.48899 -5.88092,-5.57107 0,-3.08208 2.62742,-5.59698 5.88092,-5.59698 z m 20.73365,0 c 3.25349,0 5.88091,2.5149 5.88091,5.59698 0,3.08208 -2.62742,5.57107 -5.88091,5.57107 -3.2535,0 -5.90827,-2.48899 -5.90827,-5.57107 0,-3.08208 2.65477,-5.59698 5.90827,-5.59698 z m 20.81571,0 c 3.25349,0 5.90827,2.5149 5.90827,5.59698 0,3.08208 -2.65478,5.57107 -5.90827,5.57107 -3.2535,0 -5.88092,-2.48899 -5.88092,-5.57107 0,-3.08208 2.62742,-5.59698 5.88092,-5.59698 z"
         id="path6615"
         inkscape:connector-curvature="0" />
      <path
         inkscape:connector-curvature="0"
         id="path6613"
         d="m 45.657319,377.0389 c -4.15642,0 -7.494749,3.16244 -7.494749,7.09987 l 0,197.81181 c 0,3.93743 3.338329,7.12579 7.494749,7.12579 l 208.813561,0 c 4.15642,0 7.49475,-3.18836 7.49475,-7.12579 l 0,-197.81181 c 0,-3.93743 -3.33833,-7.09987 -7.49475,-7.09987 l -208.813561,0 z m 9.819763,8.52503 c 3.253496,0 5.880916,2.5149 5.880916,5.59698 0,3.08208 -2.62742,5.57107 -5.880916,5.57107 -3.253496,0 -5.880917,-2.48899 -5.880917,-5.57107 0,-3.08208 2.627421,-5.59698 5.880917,-5.59698 z m 21.226005,0 c 3.253496,0 5.880917,2.5149 5.880917,5.59698 0,3.08208 -2.627421,5.57107 -5.880917,5.57107 -3.253496,0 -5.908269,-2.48899 -5.908269,-5.57107 0,-3.08208 2.654773,-5.59698 5.908269,-5.59698 z m 20.761003,0 c 3.25349,0 5.90827,2.5149 5.90827,5.59698 0,3.08208 -2.65478,5.57107 -5.90827,5.57107 -3.253496,0 -5.880917,-2.48899 -5.880917,-5.57107 0,-3.08208 2.627421,-5.59698 5.880917,-5.59698 z m 20.81571,0 c 3.25349,0 5.88091,2.5149 5.88091,5.59698 0,3.08208 -2.62742,5.57107 -5.88091,5.57107 -3.2535,0 -5.88092,-2.48899 -5.88092,-5.57107 0,-3.08208 2.62742,-5.59698 5.88092,-5.59698 z m 20.92512,0 c 3.25349,0 5.90827,2.5149 5.90827,5.59698 0,3.08208 -2.65478,5.57107 -5.90827,5.57107 -3.2535,0 -5.88092,-2.48899 -5.88092,-5.57107 0,-3.08208 2.62742,-5.59698 5.88092,-5.59698 z m 21.06188,0 c 3.2535,0 5.88092,2.5149 5.88092,5.59698 0,3.08208 -2.62742,5.57107 -5.88092,5.57107 -3.25349,0 -5.90826,-2.48899 -5.90826,-5.57107 0,-3.08208 2.65477,-5.59698 5.90826,-5.59698 z m 21.1713,0 c 3.2535,0 5.90827,2.5149 5.90827,5.59698 0,3.08208 -2.65477,5.57107 -5.90827,5.57107 -3.25349,0 -5.88091,-2.48899 -5.88091,-5.57107 0,-3.08208 2.62742,-5.59698 5.88091,-5.59698 z m 21.25336,0 c 3.2535,0 5.90827,2.5149 5.90827,5.59698 0,3.08208 -2.65477,5.57107 -5.90827,5.57107 -3.25349,0 -5.88091,-2.48899 -5.88091,-5.57107 0,-3.08208 2.62742,-5.59698 5.88091,-5.59698 z m 20.73365,0 c 3.2535,0 5.88092,2.5149 5.88092,5.59698 0,3.08208 -2.62742,5.57107 -5.88092,5.57107 -3.25349,0 -5.90827,-2.48899 -5.90827,-5.57107 0,-3.08208 2.65478,-5.59698 5.90827,-5.59698 z m 20.81571,0 c 3.2535,0 5.90827,2.5149 5.90827,5.59698 0,3.08208 -2.65477,5.57107 -5.90827,5.57107 -3.2535,0 -5.88092,-2.48899 -5.88092,-5.57107 0,-3.08208 2.62742,-5.59698 5.88092,-5.59698 z"
         style="fill:#89a02c;fill-opacity:1;stroke:#b3b3b3;stroke-width:0.99999988" />
      <path
         style="fill:#89a02c;fill-opacity:1;stroke:#445016;stroke-width:0.99999988"
         d="m 45.032102,375.85435 c -4.15642,0 -7.49475,3.16244 -7.49475,7.09987 l 0,197.81182 c 0,3.93743 3.33833,7.12578 7.49475,7.12578 l 208.813558,0 c 4.15642,0 7.49475,-3.18835 7.49475,-7.12578 l 0,-197.81182 c 0,-3.93743 -3.33833,-7.09987 -7.49475,-7.09987 l -208.813558,0 z m 9.819762,8.52503 c 3.253496,0 5.880917,2.5149 5.880917,5.59698 0,3.08208 -2.627421,5.57107 -5.880917,5.57107 -3.253496,0 -5.880916,-2.48899 -5.880916,-5.57107 0,-3.08208 2.62742,-5.59698 5.880916,-5.59698 z m 21.226006,0 c 3.253495,0 5.880916,2.5149 5.880916,5.59698 0,3.08208 -2.627421,5.57107 -5.880916,5.57107 -3.253496,0 -5.90827,-2.48899 -5.90827,-5.57107 0,-3.08208 2.654774,-5.59698 5.90827,-5.59698 z m 20.761002,0 c 3.253498,0 5.908268,2.5149 5.908268,5.59698 0,3.08208 -2.65477,5.57107 -5.908268,5.57107 -3.253496,0 -5.880916,-2.48899 -5.880916,-5.57107 0,-3.08208 2.62742,-5.59698 5.880916,-5.59698 z m 20.815708,0 c 3.2535,0 5.88092,2.5149 5.88092,5.59698 0,3.08208 -2.62742,5.57107 -5.88092,5.57107 -3.2535,0 -5.88092,-2.48899 -5.88092,-5.57107 0,-3.08208 2.62742,-5.59698 5.88092,-5.59698 z m 20.92512,0 c 3.2535,0 5.90827,2.5149 5.90827,5.59698 0,3.08208 -2.65477,5.57107 -5.90827,5.57107 -3.2535,0 -5.88092,-2.48899 -5.88092,-5.57107 0,-3.08208 2.62742,-5.59698 5.88092,-5.59698 z m 21.06189,0 c 3.25349,0 5.88091,2.5149 5.88091,5.59698 0,3.08208 -2.62742,5.57107 -5.88091,5.57107 -3.2535,0 -5.90827,-2.48899 -5.90827,-5.57107 0,-3.08208 2.65477,-5.59698 5.90827,-5.59698 z m 21.1713,0 c 3.25349,0 5.90827,2.5149 5.90827,5.59698 0,3.08208 -2.65478,5.57107 -5.90827,5.57107 -3.2535,0 -5.88092,-2.48899 -5.88092,-5.57107 0,-3.08208 2.62742,-5.59698 5.88092,-5.59698 z m 21.25335,0 c 3.2535,0 5.90827,2.5149 5.90827,5.59698 0,3.08208 -2.65477,5.57107 -5.90827,5.57107 -3.25349,0 -5.88091,-2.48899 -5.88091,-5.57107 0,-3.08208 2.62742,-5.59698 5.88091,-5.59698 z m 20.73365,0 c 3.2535,0 5.88092,2.5149 5.88092,5.59698 0,3.08208 -2.62742,5.57107 -5.88092,5.57107 -3.25349,0 -5.90827,-2.48899 -5.90827,-5.57107 0,-3.08208 2.65478,-5.59698 5.90827,-5.59698 z m 20.81571,0 c 3.2535,0 5.90827,2.5149 5.90827,5.59698 0,3.08208 -2.65477,5.57107 -5.90827,5.57107 -3.25349,0 -5.88091,-2.48899 -5.88091,-5.57107 0,-3.08208 2.62742,-5.59698 5.88091,-5.59698 z"
         id="path6542"
         inkscape:connector-curvature="0" />
      <path
         inkscape:connector-curvature="0"
         id="rect2985"
         d="m 43.652183,375.06848 c -4.15642,0 -7.49475,3.16245 -7.49475,7.09988 l 0,197.81181 c 0,3.93743 3.33833,7.12579 7.49475,7.12579 l 208.813557,0 c 4.15642,0 7.49475,-3.18836 7.49475,-7.12579 l 0,-197.81181 c 0,-3.93743 -3.33833,-7.09988 -7.49475,-7.09988 l -208.813557,0 z m 9.819762,8.52504 c 3.253496,0 5.880917,2.5149 5.880917,5.59698 0,3.08208 -2.627421,5.57107 -5.880917,5.57107 -3.253495,0 -5.880916,-2.48899 -5.880916,-5.57107 0,-3.08208 2.627421,-5.59698 5.880916,-5.59698 z m 21.226006,0 c 3.253496,0 5.880916,2.5149 5.880916,5.59698 0,3.08208 -2.62742,5.57107 -5.880916,5.57107 -3.253496,0 -5.90827,-2.48899 -5.90827,-5.57107 0,-3.08208 2.654774,-5.59698 5.90827,-5.59698 z m 20.761003,0 c 3.253495,0 5.908266,2.5149 5.908266,5.59698 0,3.08208 -2.654771,5.57107 -5.908266,5.57107 -3.253496,0 -5.880917,-2.48899 -5.880917,-5.57107 0,-3.08208 2.627421,-5.59698 5.880917,-5.59698 z m 20.815696,0 c 3.2535,0 5.88092,2.5149 5.88092,5.59698 0,3.08208 -2.62742,5.57107 -5.88092,5.57107 -3.25349,0 -5.88091,-2.48899 -5.88091,-5.57107 0,-3.08208 2.62742,-5.59698 5.88091,-5.59698 z m 20.92512,0 c 3.2535,0 5.90827,2.5149 5.90827,5.59698 0,3.08208 -2.65477,5.57107 -5.90827,5.57107 -3.25349,0 -5.88091,-2.48899 -5.88091,-5.57107 0,-3.08208 2.62742,-5.59698 5.88091,-5.59698 z m 21.06189,0 c 3.2535,0 5.88092,2.5149 5.88092,5.59698 0,3.08208 -2.62742,5.57107 -5.88092,5.57107 -3.2535,0 -5.90827,-2.48899 -5.90827,-5.57107 0,-3.08208 2.65477,-5.59698 5.90827,-5.59698 z m 21.1713,0 c 3.2535,0 5.90827,2.5149 5.90827,5.59698 0,3.08208 -2.65477,5.57107 -5.90827,5.57107 -3.2535,0 -5.88092,-2.48899 -5.88092,-5.57107 0,-3.08208 2.62742,-5.59698 5.88092,-5.59698 z m 21.25336,0 c 3.25349,0 5.90827,2.5149 5.90827,5.59698 0,3.08208 -2.65478,5.57107 -5.90827,5.57107 -3.2535,0 -5.88092,-2.48899 -5.88092,-5.57107 0,-3.08208 2.62742,-5.59698 5.88092,-5.59698 z m 20.73365,0 c 3.25349,0 5.88091,2.5149 5.88091,5.59698 0,3.08208 -2.62742,5.57107 -5.88091,5.57107 -3.2535,0 -5.90827,-2.48899 -5.90827,-5.57107 0,-3.08208 2.65477,-5.59698 5.90827,-5.59698 z m 20.81571,0 c 3.25349,0 5.90827,2.5149 5.90827,5.59698 0,3.08208 -2.65478,5.57107 -5.90827,5.57107 -3.2535,0 -5.88092,-2.48899 -5.88092,-5.57107 0,-3.08208 2.62742,-5.59698 5.88092,-5.59698 z"
         style="fill:#ffff8a;fill-opacity:1;stroke:#677821;stroke-width:0.99999988;stroke-miterlimit:4;stroke-dasharray:none" />
      <g
         style="stroke:#22280b;stroke-width:1.17380691"
         transform="matrix(0.87529919,0,0,0.82918234,-138.15943,100.30937)"
         id="g6601">
        <rect
           style="fill:url(#linearGradient5283);fill-opacity:1;stroke:#22280b;stroke-width:1.07187986;stroke-linecap:round;stroke-linejoin:round;stroke-miterlimit:4;stroke-opacity:1;stroke-dasharray:none"
           id="rect3936"
           width="12.857142"
           height="36.92857"
           x="212.08188"
           y="316.30887"
           rx="8.5714283"
           ry="8.5714283" />
        <rect
           ry="8.5714283"
           rx="8.5714283"
           y="316.30887"
           x="428.86758"
           height="36.92857"
           width="12.857142"
           id="rect6548"
           style="fill:url(#linearGradient5285);fill-opacity:1;stroke:#22280b;stroke-width:1.07187986;stroke-linecap:round;stroke-linejoin:round;stroke-miterlimit:4;stroke-opacity:1;stroke-dasharray:none" />
        <rect
           style="fill:url(#linearGradient5287);fill-opacity:1;stroke:#22280b;stroke-width:1.07187986;stroke-linecap:round;stroke-linejoin:round;stroke-miterlimit:4;stroke-opacity:1;stroke-dasharray:none"
           id="rect6550"
           width="12.857142"
           height="36.92857"
           x="404.7803"
           y="316.30887"
           rx="8.5714283"
           ry="8.5714283" />
        <rect
           ry="8.5714283"
           rx="8.5714283"
           y="316.30887"
           x="380.69299"
           height="36.92857"
           width="12.857142"
           id="rect6552"
           style="fill:url(#linearGradient5289);fill-opacity:1;stroke:#22280b;stroke-width:1.07187986;stroke-linecap:round;stroke-linejoin:round;stroke-miterlimit:4;stroke-opacity:1;stroke-dasharray:none" />
        <rect
           style="fill:url(#linearGradient5291);fill-opacity:1;stroke:#22280b;stroke-width:1.07187986;stroke-linecap:round;stroke-linejoin:round;stroke-miterlimit:4;stroke-opacity:1;stroke-dasharray:none"
           id="rect6554"
           width="12.857142"
           height="36.92857"
           x="356.60568"
           y="316.30887"
           rx="8.5714283"
           ry="8.5714283" />
        <rect
           ry="8.5714283"
           rx="8.5714283"
           y="316.30887"
           x="332.5184"
           height="36.92857"
           width="12.857142"
           id="rect6556"
           style="fill:url(#linearGradient5293);fill-opacity:1;stroke:#22280b;stroke-width:1.07187986;stroke-linecap:round;stroke-linejoin:round;stroke-miterlimit:4;stroke-opacity:1;stroke-dasharray:none" />
        <rect
           style="fill:url(#linearGradient5295);fill-opacity:1;stroke:#22280b;stroke-width:1.07187986;stroke-linecap:round;stroke-linejoin:round;stroke-miterlimit:4;stroke-opacity:1;stroke-dasharray:none"
           id="rect6558"
           width="12.857142"
           height="36.92857"
           x="308.43109"
           y="316.30887"
           rx="8.5714283"
           ry="8.5714283" />
        <rect
           ry="8.5714283"
           rx="8.5714283"
           y="316.30887"
           x="284.34378"
           height="36.92857"
           width="12.857142"
           id="rect6560"
           style="fill:url(#linearGradient5297);fill-opacity:1;stroke:#22280b;stroke-width:1.07187986;stroke-linecap:round;stroke-linejoin:round;stroke-miterlimit:4;stroke-opacity:1;stroke-dasharray:none" />
        <rect
           style="fill:url(#linearGradient5299);fill-opacity:1;stroke:#22280b;stroke-width:1.07187986;stroke-linecap:round;stroke-linejoin:round;stroke-miterlimit:4;stroke-opacity:1;stroke-dasharray:none"
           id="rect6562"
           width="12.857142"
           height="36.92857"
           x="260.2565"
           y="316.30887"
           rx="8.5714283"
           ry="8.5714283" />
        <rect
           ry="8.5714283"
           rx="8.5714283"
           y="316.30887"
           x="236.16917"
           height="36.92857"
           width="12.857142"
           id="rect6564"
           style="fill:url(#linearGradient5301);fill-opacity:1;stroke:#22280b;stroke-width:1.07187986;stroke-linecap:round;stroke-linejoin:round;stroke-miterlimit:4;stroke-opacity:1;stroke-dasharray:none" />
      </g>
      <g
         id="g5590">
        <path
           style="opacity:0.40654206;fill:none;stroke:#000000;stroke-width:3;stroke-linecap:round;stroke-linejoin:miter;stroke-miterlimit:4;stroke-opacity:1;stroke-dasharray:none;stroke-dashoffset:0"
           d="m 52.530606,424.63317 191.348424,0"
           id="path3271"
           inkscape:connector-curvature="0" />
        <path
           style="opacity:0.40654206;fill:none;stroke:#000000;stroke-width:3;stroke-linecap:round;stroke-linejoin:miter;stroke-miterlimit:4;stroke-opacity:1;stroke-dasharray:none;stroke-dashoffset:0"
           d="m 52.530603,452.74568 191.348427,0"
           id="path3275"
           inkscape:connector-curvature="0" />
        <path
           style="opacity:0.40654206;fill:none;stroke:#000000;stroke-width:3;stroke-linecap:round;stroke-linejoin:miter;stroke-miterlimit:4;stroke-opacity:1;stroke-dasharray:none;stroke-dashoffset:0"
           d="m 52.530603,480.85818 191.348427,0"
           id="path3279"
           inkscape:connector-curvature="0" />
        <path
           style="opacity:0.40654206;fill:none;stroke:#000000;stroke-width:3;stroke-linecap:round;stroke-linejoin:miter;stroke-miterlimit:4;stroke-opacity:1;stroke-dasharray:none;stroke-dashoffset:0"
           d="m 52.530604,508.97068 191.348426,0"
           id="path3283"
           inkscape:connector-curvature="0" />
        <path
           inkscape:connector-curvature="0"
           id="path3285"
           d="m 52.530604,565.19569 191.348426,0"
           style="opacity:0.40654206;fill:none;stroke:#000000;stroke-width:3;stroke-linecap:round;stroke-linejoin:miter;stroke-miterlimit:4;stroke-opacity:1;stroke-dasharray:none;stroke-dashoffset:0" />
        <path
           style="opacity:0.40654206;fill:none;stroke:#000000;stroke-width:3;stroke-linecap:round;stroke-linejoin:miter;stroke-miterlimit:4;stroke-opacity:1;stroke-dasharray:none;stroke-dashoffset:0"
           d="m 52.530603,537.08319 191.348427,0"
           id="path3283-4"
           inkscape:connector-curvature="0" />
      </g>
    </g>
  </g>
</svg>
