<?xml version="1.0" encoding="UTF-8" standalone="no"?>
<!-- Created with Inkscape (http://www.inkscape.org/) -->

<svg
   xmlns:osb="http://www.openswatchbook.org/uri/2009/osb"
   xmlns:dc="http://purl.org/dc/elements/1.1/"
   xmlns:cc="http://creativecommons.org/ns#"
   xmlns:rdf="http://www.w3.org/1999/02/22-rdf-syntax-ns#"
   xmlns:svg="http://www.w3.org/2000/svg"
   xmlns="http://www.w3.org/2000/svg"
   xmlns:sodipodi="http://sodipodi.sourceforge.net/DTD/sodipodi-0.dtd"
   xmlns:inkscape="http://www.inkscape.org/namespaces/inkscape"
   id="svg3081"
   version="1.1"
   inkscape:version="0.48.2 r9819"
   width="250"
   height="250"
   sodipodi:docname="phone.svg"
   inkscape:export-filename="/home/nhasan/android/workspace/Airports/artwork/phone.png"
   inkscape:export-xdpi="288"
   inkscape:export-ydpi="288">
  <metadata
     id="metadata3087">
    <rdf:RDF>
      <cc:Work
         rdf:about="">
        <dc:format>image/svg+xml</dc:format>
        <dc:type
           rdf:resource="http://purl.org/dc/dcmitype/StillImage" />
        <dc:title></dc:title>
      </cc:Work>
    </rdf:RDF>
  </metadata>
  <defs
     id="defs3085">
    <linearGradient
       id="linearGradient3913"
       osb:paint="solid">
      <stop
         style="stop-color:#000000;stop-opacity:1;"
         offset="0"
         id="stop3915" />
    </linearGradient>
  </defs>
  <sodipodi:namedview
     pagecolor="#ffffff"
     bordercolor="#666666"
     borderopacity="1"
     objecttolerance="10"
     gridtolerance="10"
     guidetolerance="10"
     inkscape:pageopacity="0"
     inkscape:pageshadow="2"
     inkscape:window-width="1600"
     inkscape:window-height="846"
     id="namedview3083"
     showgrid="false"
     inkscape:zoom="1.7383042"
     inkscape:cx="46.109363"
     inkscape:cy="144.38869"
     inkscape:window-x="0"
     inkscape:window-y="-3"
     inkscape:window-maximized="1"
     inkscape:current-layer="svg3081" />
  <path
     style="fill:#a6a6a6;fill-opacity:1;stroke:none"
     d="M 125.04728,5 C 58.763641,5 4.9499999,58.717859 4.9499999,125 c 0,66.28216 53.8136411,120 120.0972801,120 C 191.33093,245 245.05,191.28216 245.05,125 245.05,58.71786 191.33093,5.000001 125.04728,5.000001 z m 46.80956,34.609928 c 3.65855,0.21138 6.59239,1.650066 10.21301,3.687945 10.41398,5.861613 17.82184,18.377139 26.09987,28.652481 1.35291,1.679373 1.78839,4.798579 0.37827,6.430262 -9.27423,10.731513 -24.491,20.707707 -36.3129,28.652474 -2.47229,1.6615 -6.6838,1.42024 -8.98363,-0.4728 -5.95938,-4.90532 -6.23973,-19.797459 -14.46841,-24.491732 -2.2275,-1.270709 -5.17691,-0.641694 -7.65976,0 -7.63511,1.973259 -14.32609,6.906553 -20.70969,11.536643 -6.49225,4.708954 -17.58905,16.359339 -17.58905,16.359339 0,0 -9.852103,9.66959 -13.617326,15.41371 -3.742073,5.70878 -7.549236,11.90067 -8.699961,18.62884 -0.347574,2.03227 -0.574288,4.42973 0.567388,6.14657 5.362717,8.06444 22.076799,8.21527 25.627059,13.80616 1.54844,2.43849 2.48005,6.21971 0.85108,8.6052 -11.087765,16.2371 -28.005154,37.0335 -27.70748,36.97399 0,0 -4.244067,1.56562 -6.146711,0.7565 -9.967886,-4.23884 -21.952562,-13.59196 -30.544428,-26.47753 -5.374987,-8.06108 -0.562946,-22.01536 -0.472821,-21.65486 5.423438,-13.74607 11.565282,-26.13071 18.629263,-36.59574 7.312083,-10.53971 15.028448,-21.0442 24.775974,-31.583927 9.336314,-9.705881 20.408993,-18.79736 32.719413,-27.990545 10.70376,-7.462421 22.69665,-14.854355 38.29874,-22.316786 6.67186,-3.191133 11.09356,-4.277571 14.7521,-4.066194 z"
     id="path3911"
     inkscape:connector-curvature="0" />
</svg>
