<?xml version="1.0" encoding="UTF-8" standalone="no"?>
<!-- Created with Inkscape (http://www.inkscape.org/) -->

<svg
   xmlns:osb="http://www.openswatchbook.org/uri/2009/osb"
   xmlns:dc="http://purl.org/dc/elements/1.1/"
   xmlns:cc="http://creativecommons.org/ns#"
   xmlns:rdf="http://www.w3.org/1999/02/22-rdf-syntax-ns#"
   xmlns:svg="http://www.w3.org/2000/svg"
   xmlns="http://www.w3.org/2000/svg"
   xmlns:sodipodi="http://sodipodi.sourceforge.net/DTD/sodipodi-0.dtd"
   xmlns:inkscape="http://www.inkscape.org/namespaces/inkscape"
   id="svg3081"
   version="1.1"
   inkscape:version="0.48.2 r9819"
   width="96"
   height="96"
   sodipodi:docname="phone.svg"
   inkscape:export-filename="/home/nhasan/android/workspace/Airports/artwork/phone.png"
   inkscape:export-xdpi="290.46152"
   inkscape:export-ydpi="290.46152">
  <metadata
     id="metadata3087">
    <rdf:RDF>
      <cc:Work
         rdf:about="">
        <dc:format>image/svg+xml</dc:format>
        <dc:type
           rdf:resource="http://purl.org/dc/dcmitype/StillImage" />
        <dc:title></dc:title>
      </cc:Work>
    </rdf:RDF>
  </metadata>
  <defs
     id="defs3085">
    <linearGradient
       id="linearGradient3913"
       osb:paint="solid">
      <stop
         style="stop-color:#000000;stop-opacity:1;"
         offset="0"
         id="stop3915" />
    </linearGradient>
  </defs>
  <sodipodi:namedview
     pagecolor="#ffffff"
     bordercolor="#666666"
     borderopacity="1"
     objecttolerance="10"
     gridtolerance="10"
     guidetolerance="10"
     inkscape:pageopacity="0"
     inkscape:pageshadow="2"
     inkscape:window-width="1600"
     inkscape:window-height="846"
     id="namedview3083"
     showgrid="false"
     inkscape:zoom="2.4583333"
     inkscape:cx="23.323674"
     inkscape:cy="62.152648"
     inkscape:window-x="0"
     inkscape:window-y="-3"
     inkscape:window-maximized="1"
     inkscape:current-layer="svg3081" />
  <path
     sodipodi:type="arc"
     style="opacity:1;fill:#a6a6a6;stroke:none;stroke-width:1;stroke-linecap:round;stroke-linejoin:bevel;stroke-miterlimit:4;stroke-opacity:1;stroke-dasharray:none;stroke-dashoffset:14;fill-opacity:1"
     id="path3911"
     sodipodi:cx="48"
     sodipodi:cy="46.372883"
     sodipodi:rx="39.661018"
     sodipodi:ry="39.661018"
     d="m 87.661018,46.372883 a 39.661018,39.661018 0 1 1 -79.3220364,0 39.661018,39.661018 0 1 1 79.3220364,0 z"
     transform="translate(0,2)" />
  <path
     style="fill:#ffffff;stroke:none;stroke-width:1px;stroke-linecap:butt;stroke-linejoin:miter;stroke-opacity:1;fill-opacity:1"
     d="m 55.872553,34.190323 c -0.736097,-0.419936 -1.721876,-0.212059 -2.542373,0 -2.523105,0.652102 -4.729461,2.258034 -6.838983,3.788136 -2.145445,1.556158 -5.822034,5.415254 -5.822034,5.415254 0,0 -3.255738,3.21192 -4.5,5.110169 -1.236606,1.886569 -2.492614,3.903668 -2.872882,6.127119 -0.11486,0.671596 -0.173887,1.466539 0.20339,2.033898 1.772172,2.66504 7.267464,2.728662 8.440678,4.576272 0.511705,0.805848 0.843393,2.059131 0.305085,2.847457 -3.664079,5.365866 -9.250911,12.223064 -9.152542,12.20339 0,0 -1.405148,0.521619 -2.033898,0.254237 -3.293999,-1.400803 -7.279367,-4.487488 -10.118645,-8.745763 -1.776225,-2.663935 -0.182327,-7.288619 -0.152545,-7.169491 1.792236,-4.542646 3.81817,-8.617896 6.152542,-12.076271 2.416358,-3.483051 4.965252,-6.966102 8.186441,-10.449153 3.085288,-3.207491 6.7624,-6.190756 10.830509,-9.228813 3.537172,-2.466102 7.505134,-4.932203 12.661017,-7.398305 4.409585,-2.109141 5.844345,-1.44861 8.237288,-0.101695 3.441421,1.937072 5.9085,6.061945 8.644067,9.457627 0.447095,0.554983 0.567681,1.596374 0.101695,2.135593 -3.064773,3.546425 -8.093318,6.832129 -12,9.457627 -0.817004,0.54907 -2.189145,0.47305 -2.94915,-0.152542 -1.969342,-1.621046 -2.060403,-6.533437 -4.77966,-8.084746 z"
     id="path3097"
     inkscape:connector-curvature="0"
     sodipodi:nodetypes="asscssasscssccccssssssa" />
</svg>
