<?xml version="1.0" encoding="UTF-8" standalone="no"?>
<!-- Created with Inkscape (http://www.inkscape.org/) -->

<svg
   width="250"
   height="250"
   id="svg4472"
   version="1.1"
   inkscape:version="1.1.2 (0a00cf5339, 2022-02-04)"
   sodipodi:docname="SN.svg"
   inkscape:export-filename="/home/nhasan/android/workspace/Airports/artwork/+SN.png"
   inkscape:export-xdpi="288"
   inkscape:export-ydpi="288"
   xmlns:inkscape="http://www.inkscape.org/namespaces/inkscape"
   xmlns:sodipodi="http://sodipodi.sourceforge.net/DTD/sodipodi-0.dtd"
   xmlns="http://www.w3.org/2000/svg"
   xmlns:svg="http://www.w3.org/2000/svg"
   xmlns:rdf="http://www.w3.org/1999/02/22-rdf-syntax-ns#"
   xmlns:cc="http://creativecommons.org/ns#"
   xmlns:dc="http://purl.org/dc/elements/1.1/">
  <defs
     id="defs4474">
    <rect
       x="76.081892"
       y="15.414124"
       width="64.94594"
       height="67.165266"
       id="rect31035" />
    <rect
       x="76.081894"
       y="15.414124"
       width="64.945938"
       height="67.165268"
       id="rect31035-5" />
    <rect
       x="76.081894"
       y="15.414124"
       width="64.945938"
       height="67.165268"
       id="rect31035-1" />
    <rect
       x="76.081894"
       y="15.414124"
       width="64.945938"
       height="67.165268"
       id="rect31035-8" />
    <rect
       x="76.081894"
       y="15.414124"
       width="64.945938"
       height="67.165268"
       id="rect31035-0" />
  </defs>
  <sodipodi:namedview
     id="base"
     pagecolor="#ffffff"
     bordercolor="#666666"
     borderopacity="1.0"
     inkscape:pageopacity="0.0"
     inkscape:pageshadow="2"
     inkscape:zoom="2.319335"
     inkscape:cx="102.40004"
     inkscape:cy="179.57734"
     inkscape:document-units="px"
     inkscape:current-layer="layer1"
     showgrid="false"
     inkscape:window-width="2560"
     inkscape:window-height="1379"
     inkscape:window-x="1920"
     inkscape:window-y="0"
     inkscape:window-maximized="1"
     inkscape:pagecheckerboard="0" />
  <metadata
     id="metadata4477">
    <rdf:RDF>
      <cc:Work
         rdf:about="">
        <dc:format>image/svg+xml</dc:format>
        <dc:type
           rdf:resource="http://purl.org/dc/dcmitype/StillImage" />
      </cc:Work>
    </rdf:RDF>
  </metadata>
  <g
     inkscape:label="Layer 1"
     inkscape:groupmode="layer"
     id="layer1"
     transform="translate(-291.44555,-355.99104)">
    <g
       id="g9693">
      <g
         aria-label="*"
         transform="matrix(4.4582242,0,0,4.4582242,33.268076,267.36522)"
         id="text31033"
         style="font-size:39.799px;line-height:1.25;font-family:'DejaVu Math TeX Gyre';-inkscape-font-specification:'DejaVu Math TeX Gyre, Normal';white-space:pre;shape-inside:url(#rect31035)">
        <path
           d="m 94.946757,34.517582 -1.59196,2.586935 -6.208644,-3.860503 0.477588,6.925026 h -3.18392 l 0.477588,-6.925026 -6.208644,3.860503 -1.59196,-2.586935 6.686232,-3.104322 -6.686232,-3.064523 1.59196,-2.586935 6.208644,3.860503 -0.477588,-6.964825 h 3.18392 l -0.477588,6.964825 6.208644,-3.860503 1.59196,2.586935 -6.686232,3.064523 z"
           id="path40926" />
      </g>
      <g
         aria-label="*"
         transform="matrix(4.4582242,0,0,4.4582242,-32.476977,340.32416)"
         id="text31033-0"
         style="font-size:39.799px;line-height:1.25;font-family:'DejaVu Math TeX Gyre';-inkscape-font-specification:'DejaVu Math TeX Gyre, Normal';white-space:pre;shape-inside:url(#rect31035-1)">
        <path
           d="m 94.946757,34.517582 -1.59196,2.586935 -6.208644,-3.860503 0.477588,6.925026 h -3.18392 l 0.477588,-6.925026 -6.208644,3.860503 -1.59196,-2.586935 6.686232,-3.104322 -6.686232,-3.064523 1.59196,-2.586935 6.208644,3.860503 -0.477588,-6.964825 h 3.18392 l -0.477588,6.964825 6.208644,-3.860503 1.59196,2.586935 -6.686232,3.064523 z"
           id="path40929" />
      </g>
      <g
         aria-label="*"
         transform="matrix(4.4582242,0,0,4.4582242,98.27014,340.32416)"
         id="text31033-5"
         style="font-size:39.799px;line-height:1.25;font-family:'DejaVu Math TeX Gyre';-inkscape-font-specification:'DejaVu Math TeX Gyre, Normal';white-space:pre;shape-inside:url(#rect31035-8)">
        <path
           d="m 94.946757,34.517582 -1.59196,2.586935 -6.208644,-3.860503 0.477588,6.925026 h -3.18392 l 0.477588,-6.925026 -6.208644,3.860503 -1.59196,-2.586935 6.686232,-3.104322 -6.686232,-3.064523 1.59196,-2.586935 6.208644,3.860503 -0.477588,-6.964825 h 3.18392 l -0.477588,6.964825 6.208644,-3.860503 1.59196,2.586935 -6.686232,3.064523 z"
           id="path40932" />
      </g>
    </g>
  </g>
</svg>
