<?xml version="1.0" encoding="UTF-8" standalone="no"?>
<!-- Created with Inkscape (http://www.inkscape.org/) -->

<svg
   width="250"
   height="125"
   id="svg2"
   version="1.1"
   inkscape:version="1.1.2 (0a00cf5339, 2022-02-04)"
   sodipodi:docname="VFR.svg"
   inkscape:export-filename="/home/nhasan/android/workspace/Airports/artwork/vfr.png"
   inkscape:export-xdpi="108"
   inkscape:export-ydpi="108"
   xmlns:inkscape="http://www.inkscape.org/namespaces/inkscape"
   xmlns:sodipodi="http://sodipodi.sourceforge.net/DTD/sodipodi-0.dtd"
   xmlns="http://www.w3.org/2000/svg"
   xmlns:svg="http://www.w3.org/2000/svg"
   xmlns:rdf="http://www.w3.org/1999/02/22-rdf-syntax-ns#"
   xmlns:cc="http://creativecommons.org/ns#"
   xmlns:dc="http://purl.org/dc/elements/1.1/">
  <defs
     id="defs4" />
  <sodipodi:namedview
     id="base"
     pagecolor="#ffffff"
     bordercolor="#666666"
     borderopacity="1.0"
     inkscape:pageopacity="0.0"
     inkscape:pageshadow="2"
     inkscape:zoom="2.7650421"
     inkscape:cx="145.20575"
     inkscape:cy="127.84616"
     inkscape:document-units="px"
     inkscape:current-layer="layer1"
     showgrid="false"
     inkscape:window-width="2560"
     inkscape:window-height="1379"
     inkscape:window-x="1920"
     inkscape:window-y="0"
     inkscape:window-maximized="1"
     inkscape:pagecheckerboard="0" />
  <metadata
     id="metadata7">
    <rdf:RDF>
      <cc:Work
         rdf:about="">
        <dc:format>image/svg+xml</dc:format>
        <dc:type
           rdf:resource="http://purl.org/dc/dcmitype/StillImage" />
      </cc:Work>
    </rdf:RDF>
  </metadata>
  <g
     inkscape:label="Layer 1"
     inkscape:groupmode="layer"
     id="layer1"
     transform="translate(1.4285717,-653.79077)">
    <g
       id="g7037"
       transform="matrix(0.31250001,0,0,0.3124992,-0.98214703,449.48184)">
      <rect
         style="fill:#00a020;fill-opacity:1;stroke:#007320;stroke-width:20;stroke-linejoin:round;stroke-miterlimit:6;stroke-dasharray:none;stroke-opacity:1"
         id="rect2985"
         width="780"
         height="380"
         x="8.5714283"
         y="663.79077"
         rx="53.613216"
         ry="53.613216" />
      <path
         d="m 327.57338,753.40202 -68.04,199.92 h -46.2 l -67.76,-199.92 h 42.84 l 37.52,119 q 1.12,3.08 3.08,11.48 2.24,8.12 4.48,17.36 2.24,8.96 3.08,15.12 0.84,-6.16 2.8,-15.12 2.24,-9.24 4.48,-17.36 2.24,-8.4 3.08,-11.48 l 37.8,-119 z"
         style="font-weight:bold;font-size:280px;line-height:1.25;font-family:Roboto;-inkscape-font-specification:'Roboto, Bold';letter-spacing:0px;word-spacing:0px;fill:#ffffff"
         id="path6969" />
      <path
         d="m 394.49327,953.32202 h -41.72 v -199.92 h 114.52 v 34.72 h -72.8 v 51.52 h 67.76 v 34.72 h -67.76 z"
         style="font-weight:bold;font-size:280px;line-height:1.25;font-family:Roboto;-inkscape-font-specification:'Roboto, Bold';letter-spacing:0px;word-spacing:0px;fill:#ffffff"
         id="path6971" />
      <path
         d="m 564.73323,753.40202 q 40.88,0 60.2,14.84 19.6,14.84 19.6,45.08 0,13.72 -5.32,24.08 -5.04,10.08 -13.72,17.36 -8.4,7 -18.2,11.48 l 58.8,87.08 h -47.04 l -47.6,-76.72 h -22.68 v 76.72 h -42.28 v -199.92 z m -3.08,34.72 h -12.88 v 54.04 h 13.72 q 21,0 29.96,-7 9.24,-7 9.24,-20.72 0,-14.28 -9.8,-20.16 -9.52,-6.16 -30.24,-6.16 z"
         style="font-weight:bold;font-size:280px;line-height:1.25;font-family:Roboto;-inkscape-font-specification:'Roboto, Bold';letter-spacing:0px;word-spacing:0px;fill:#ffffff"
         id="path6973" />
    </g>
  </g>
</svg>
